<?xml version="1.0" encoding="UTF-8" standalone="no"?><svg xmlns="http://www.w3.org/2000/svg" xmlns:xlink="http://www.w3.org/1999/xlink" contentScriptType="application/ecmascript" contentStyleType="text/css" height="432px" preserveAspectRatio="none" style="width:397px;height:432px;" version="1.1" viewBox="0 0 397 432" width="397px" zoomAndPan="magnify"><defs><filter height="300%" id="f2v8cf7tbw1ym" width="300%" x="-1" y="-1"><feGaussianBlur result="blurOut" stdDeviation="2.0"/><feColorMatrix in="blurOut" result="blurOut2" type="matrix" values="0 0 0 0 0 0 0 0 0 0 0 0 0 0 0 0 0 0 .4 0"/><feOffset dx="4.0" dy="4.0" in="blurOut2" result="blurOut3"/><feBlend in="SourceGraphic" in2="blurOut3" mode="normal"/></filter></defs><g><ellipse cx="200.5" cy="20" fill="#000000" filter="url(#f2v8cf7tbw1ym)" rx="10" ry="10" style="stroke: none; stroke-width: 1.0;"/><rect fill="#FEFECE" filter="url(#f2v8cf7tbw1ym)" height="33.9688" rx="12.5" ry="12.5" style="stroke: #A80036; stroke-width: 1.5;" width="243" x="79" y="50"/><text fill="#000000" font-family="sans-serif" font-size="12" lengthAdjust="spacingAndGlyphs" textLength="223" x="89" y="71.1387">Split input data packet into records</text><rect fill="#FEFECE" filter="url(#f2v8cf7tbw1ym)" height="33.9688" rx="12.5" ry="12.5" style="stroke: #A80036; stroke-width: 1.5;" width="293" x="54" y="191.9688"/><text fill="#000000" font-family="sans-serif" font-size="12" lengthAdjust="spacingAndGlyphs" textLength="273" x="64" y="213.1074">Generate zero, one or many output records</text><polygon fill="#FEFECE" filter="url(#f2v8cf7tbw1ym)" points="139.5,147.9688,261.5,147.9688,273.5,159.9688,261.5,171.9688,139.5,171.9688,127.5,159.9688,139.5,147.9688" style="stroke: #A80036; stroke-width: 1.5;"/><text fill="#000000" font-family="sans-serif" font-size="11" lengthAdjust="spacingAndGlyphs" textLength="122" x="139.5" y="163.7769">For each input record</text><rect fill="#FEFECE" filter="url(#f2v8cf7tbw1ym)" height="33.9688" rx="12.5" ry="12.5" style="stroke: #A80036; stroke-width: 1.5;" width="184" x="108.5" y="269.9375"/><text fill="#000000" font-family="sans-serif" font-size="12" lengthAdjust="spacingAndGlyphs" textLength="164" x="118.5" y="291.0762">Aggregate output records</text><polygon fill="#FEFECE" filter="url(#f2v8cf7tbw1ym)" points="156.5,103.9688,244.5,103.9688,256.5,115.9688,244.5,127.9688,156.5,127.9688,144.5,115.9688,156.5,103.9688" style="stroke: #A80036; stroke-width: 1.5;"/><text fill="#000000" font-family="sans-serif" font-size="11" lengthAdjust="spacingAndGlyphs" textLength="88" x="156.5" y="119.7769">For each phase</text><rect fill="#FEFECE" filter="url(#f2v8cf7tbw1ym)" height="33.9688" rx="12.5" ry="12.5" style="stroke: #A80036; stroke-width: 1.5;" width="212" x="94.5" y="345.9063"/><text fill="#000000" font-family="sans-serif" font-size="12" lengthAdjust="spacingAndGlyphs" textLength="192" x="104.5" y="367.0449">Aggregate output data packet</text><ellipse cx="200.5" cy="410.875" fill="#FFFFFF" filter="url(#f2v8cf7tbw1ym)" rx="11" ry="11" style="stroke: #000000; stroke-width: 1.0;"/><ellipse cx="200.5" cy="410.875" fill="#000000" rx="6" ry="6" style="stroke: #7F7F7F; stroke-width: 1.0;"/><line style="stroke: #A80036; stroke-width: 1.5;" x1="200.5" x2="200.5" y1="30" y2="50"/><polygon fill="#A80036" points="196.5,40,200.5,50,204.5,40,200.5,44" style="stroke: #A80036; stroke-width: 1.0;"/><line style="stroke: #A80036; stroke-width: 1.5;" x1="200.5" x2="200.5" y1="171.9688" y2="191.9688"/><polygon fill="#A80036" points="196.5,181.9688,200.5,191.9688,204.5,181.9688,200.5,185.9688" style="stroke: #A80036; stroke-width: 1.0;"/><line style="stroke: #A80036; stroke-width: 1.5;" x1="200.5" x2="200.5" y1="225.9375" y2="237.9375"/><line style="stroke: #A80036; stroke-width: 1.5;" x1="200.5" x2="359" y1="237.9375" y2="237.9375"/><polygon fill="#A80036" points="355,206.9531,359,196.9531,363,206.9531,359,202.9531" style="stroke: #A80036; stroke-width: 1.5;"/><line style="stroke: #A80036; stroke-width: 1.5;" x1="359" x2="359" y1="159.9688" y2="237.9375"/><line style="stroke: #A80036; stroke-width: 1.5;" x1="359" x2="273.5" y1="159.9688" y2="159.9688"/><polygon fill="#A80036" points="283.5,155.9688,273.5,159.9688,283.5,163.9688,279.5,159.9688" style="stroke: #A80036; stroke-width: 1.0;"/><line style="stroke: #A80036; stroke-width: 1.5;" x1="127.5" x2="42" y1="159.9688" y2="159.9688"/><polygon fill="#A80036" points="38,192.9531,42,202.9531,46,192.9531,42,196.9531" style="stroke: #A80036; stroke-width: 1.5;"/><line style="stroke: #A80036; stroke-width: 1.5;" x1="42" x2="42" y1="159.9688" y2="249.9375"/><line style="stroke: #A80036; stroke-width: 1.5;" x1="42" x2="200.5" y1="249.9375" y2="249.9375"/><line style="stroke: #A80036; stroke-width: 1.5;" x1="200.5" x2="200.5" y1="249.9375" y2="269.9375"/><polygon fill="#A80036" points="196.5,259.9375,200.5,269.9375,204.5,259.9375,200.5,263.9375" style="stroke: #A80036; stroke-width: 1.0;"/><line style="stroke: #A80036; stroke-width: 1.5;" x1="200.5" x2="200.5" y1="127.9688" y2="147.9688"/><polygon fill="#A80036" points="196.5,137.9688,200.5,147.9688,204.5,137.9688,200.5,141.9688" style="stroke: #A80036; stroke-width: 1.0;"/><line style="stroke: #A80036; stroke-width: 1.5;" x1="200.5" x2="200.5" y1="303.9063" y2="313.9063"/><line style="stroke: #A80036; stroke-width: 1.5;" x1="200.5" x2="371" y1="313.9063" y2="313.9063"/><polygon fill="#A80036" points="367,229.4375,371,219.4375,375,229.4375,371,225.4375" style="stroke: #A80036; stroke-width: 1.5;"/><line style="stroke: #A80036; stroke-width: 1.5;" x1="371" x2="371" y1="115.9688" y2="313.9063"/><line style="stroke: #A80036; stroke-width: 1.5;" x1="371" x2="256.5" y1="115.9688" y2="115.9688"/><polygon fill="#A80036" points="266.5,111.9688,256.5,115.9688,266.5,119.9688,262.5,115.9688" style="stroke: #A80036; stroke-width: 1.0;"/><line style="stroke: #A80036; stroke-width: 1.5;" x1="144.5" x2="24" y1="115.9688" y2="115.9688"/><polygon fill="#A80036" points="20,215.4375,24,225.4375,28,215.4375,24,219.4375" style="stroke: #A80036; stroke-width: 1.5;"/><line style="stroke: #A80036; stroke-width: 1.5;" x1="24" x2="24" y1="115.9688" y2="325.9063"/><line style="stroke: #A80036; stroke-width: 1.5;" x1="24" x2="200.5" y1="325.9063" y2="325.9063"/><line style="stroke: #A80036; stroke-width: 1.5;" x1="200.5" x2="200.5" y1="325.9063" y2="345.9063"/><polygon fill="#A80036" points="196.5,335.9063,200.5,345.9063,204.5,335.9063,200.5,339.9063" style="stroke: #A80036; stroke-width: 1.0;"/><line style="stroke: #A80036; stroke-width: 1.5;" x1="200.5" x2="200.5" y1="83.9688" y2="103.9688"/><polygon fill="#A80036" points="196.5,93.9688,200.5,103.9688,204.5,93.9688,200.5,97.9688" style="stroke: #A80036; stroke-width: 1.0;"/><line style="stroke: #A80036; stroke-width: 1.5;" x1="200.5" x2="200.5" y1="379.875" y2="399.875"/><polygon fill="#A80036" points="196.5,389.875,200.5,399.875,204.5,389.875,200.5,393.875" style="stroke: #A80036; stroke-width: 1.0;"/></g></svg>