<?xml version="1.0" encoding="UTF-8" standalone="no"?><svg xmlns="http://www.w3.org/2000/svg" xmlns:xlink="http://www.w3.org/1999/xlink" contentScriptType="application/ecmascript" contentStyleType="text/css" height="277px" preserveAspectRatio="none" style="width:278px;height:277px;" version="1.1" viewBox="0 0 278 277" width="278px" zoomAndPan="magnify"><defs><filter height="300%" id="f4curh9m7am59" width="300%" x="-1" y="-1"><feGaussianBlur result="blurOut" stdDeviation="2.0"/><feColorMatrix in="blurOut" result="blurOut2" type="matrix" values="0 0 0 0 0 0 0 0 0 0 0 0 0 0 0 0 0 0 .4 0"/><feOffset dx="4.0" dy="4.0" in="blurOut2" result="blurOut3"/><feBlend in="SourceGraphic" in2="blurOut3" mode="normal"/></filter></defs><g><!--class MoComponents--><rect fill="#FEFECE" filter="url(#f4curh9m7am59)" height="86.4141" id="MoComponents" style="stroke: #A80036; stroke-width: 1.5;" width="129" x="72" y="180"/><ellipse cx="87" cy="196" fill="#ADD1B2" rx="11" ry="11" style="stroke: #A80036; stroke-width: 1.0;"/><path d="M89.9688,201.6406 Q89.3906,201.9375 88.75,202.0781 Q88.1094,202.2344 87.4063,202.2344 Q84.9063,202.2344 83.5781,200.5938 Q82.2656,198.9375 82.2656,195.8125 Q82.2656,192.6875 83.5781,191.0313 Q84.9063,189.375 87.4063,189.375 Q88.1094,189.375 88.75,189.5313 Q89.4063,189.6875 89.9688,189.9844 L89.9688,192.7031 Q89.3438,192.125 88.75,191.8594 Q88.1563,191.5781 87.5313,191.5781 Q86.1875,191.5781 85.5,192.6563 Q84.8125,193.7188 84.8125,195.8125 Q84.8125,197.9063 85.5,198.9844 Q86.1875,200.0469 87.5313,200.0469 Q88.1563,200.0469 88.75,199.7813 Q89.3438,199.5 89.9688,198.9219 L89.9688,201.6406 Z "/><text fill="#000000" font-family="sans-serif" font-size="12" lengthAdjust="spacingAndGlyphs" textLength="97" x="101" y="200.1543">MoComponents</text><line style="stroke: #A80036; stroke-width: 1.5;" x1="73" x2="200" y1="212" y2="212"/><text fill="#000000" font-family="sans-serif" font-size="11" lengthAdjust="spacingAndGlyphs" textLength="89" x="78" y="226.2104">String manager</text><text fill="#000000" font-family="sans-serif" font-size="11" lengthAdjust="spacingAndGlyphs" textLength="66" x="78" y="239.0151">String node</text><text fill="#000000" font-family="sans-serif" font-size="11" lengthAdjust="spacingAndGlyphs" textLength="63" x="78" y="251.8198">String card</text><line style="stroke: #A80036; stroke-width: 1.5;" x1="73" x2="200" y1="258.4141" y2="258.4141"/><!--class Field--><rect fill="#FEFECE" filter="url(#f4curh9m7am59)" height="112.0234" id="Field" style="stroke: #A80036; stroke-width: 1.5;" width="261" x="6" y="8"/><ellipse cx="117.75" cy="24" fill="#ADD1B2" rx="11" ry="11" style="stroke: #A80036; stroke-width: 1.0;"/><path d="M120.7188,29.6406 Q120.1406,29.9375 119.5,30.0781 Q118.8594,30.2344 118.1563,30.2344 Q115.6563,30.2344 114.3281,28.5938 Q113.0156,26.9375 113.0156,23.8125 Q113.0156,20.6875 114.3281,19.0313 Q115.6563,17.375 118.1563,17.375 Q118.8594,17.375 119.5,17.5313 Q120.1563,17.6875 120.7188,17.9844 L120.7188,20.7031 Q120.0938,20.125 119.5,19.8594 Q118.9063,19.5781 118.2813,19.5781 Q116.9375,19.5781 116.25,20.6563 Q115.5625,21.7188 115.5625,23.8125 Q115.5625,25.9063 116.25,26.9844 Q116.9375,28.0469 118.2813,28.0469 Q118.9063,28.0469 119.5,27.7813 Q120.0938,27.5 120.7188,26.9219 L120.7188,29.6406 Z "/><text fill="#000000" font-family="sans-serif" font-size="12" lengthAdjust="spacingAndGlyphs" textLength="29" x="138.25" y="28.1543">Field</text><line style="stroke: #A80036; stroke-width: 1.5;" x1="7" x2="266" y1="40" y2="40"/><line style="stroke: #A80036; stroke-width: 1.5;" x1="7" x2="266" y1="48" y2="48"/><text fill="#000000" font-family="sans-serif" font-size="11" lengthAdjust="spacingAndGlyphs" textLength="249" x="12" y="62.2104">MoComponents getter(Object originalAlarm)</text><text fill="#000000" font-family="sans-serif" font-size="11" lengthAdjust="spacingAndGlyphs" textLength="151" x="12" y="75.0151">MoComponents defaulter()</text><text fill="#000000" font-family="sans-serif" font-size="11" lengthAdjust="spacingAndGlyphs" textLength="194" x="12" y="87.8198">boolean validator(MoComponents)</text><text fill="#000000" font-family="sans-serif" font-size="11" lengthAdjust="spacingAndGlyphs" textLength="190" x="12" y="100.6245">String translator(MoComponents)</text><text fill="#000000" font-family="sans-serif" font-size="11" lengthAdjust="spacingAndGlyphs" textLength="103" x="12" y="113.4292">void setter(String)</text><!--link Field to MoComponents--><path d="M136.25,120.352 C136.25,138.114 136.25,157.612 136.25,174.739 " fill="none" id="Field-MoComponents" style="stroke: #A80036; stroke-width: 1.0; stroke-dasharray: 7.0,7.0;"/><polygon fill="#A80036" points="136.25,179.9736,140.25,170.9736,136.25,174.9736,132.25,170.9736,136.25,179.9736" style="stroke: #A80036; stroke-width: 1.0;"/></g></svg>