<?xml version="1.0" encoding="UTF-8" standalone="no"?><svg xmlns="http://www.w3.org/2000/svg" xmlns:xlink="http://www.w3.org/1999/xlink" contentScriptType="application/ecmascript" contentStyleType="text/css" height="791px" preserveAspectRatio="none" style="width:513px;height:791px;" version="1.1" viewBox="0 0 513 791" width="513px" zoomAndPan="magnify"><defs><filter height="300%" id="fkp0j5mgrz7rw" width="300%" x="-1" y="-1"><feGaussianBlur result="blurOut" stdDeviation="2.0"/><feColorMatrix in="blurOut" result="blurOut2" type="matrix" values="0 0 0 0 0 0 0 0 0 0 0 0 0 0 0 0 0 0 .4 0"/><feOffset dx="4.0" dy="4.0" in="blurOut2" result="blurOut3"/><feBlend in="SourceGraphic" in2="blurOut3" mode="normal"/></filter></defs><g><ellipse cx="402.2496" cy="18" fill="#000000" filter="url(#fkp0j5mgrz7rw)" rx="10" ry="10" style="stroke: none; stroke-width: 1.0;"/><rect fill="#FEFECE" filter="url(#fkp0j5mgrz7rw)" height="50" rx="12.5" ry="12.5" style="stroke: #A80036; stroke-width: 1.5;" width="62" x="371.2496" y="90"/><line style="stroke: #A80036; stroke-width: 1.5;" x1="371.2496" x2="433.2496" y1="116.2969" y2="116.2969"/><text fill="#000000" font-family="sans-serif" font-size="14" lengthAdjust="spacingAndGlyphs" textLength="42" x="381.2496" y="107.9951">getter</text><rect fill="#FEFECE" filter="url(#fkp0j5mgrz7rw)" height="50" rx="12.5" ry="12.5" style="stroke: #A80036; stroke-width: 1.5;" width="77" x="159.9996" y="248"/><line style="stroke: #A80036; stroke-width: 1.5;" x1="159.9996" x2="236.9996" y1="274.2969" y2="274.2969"/><text fill="#000000" font-family="sans-serif" font-size="14" lengthAdjust="spacingAndGlyphs" textLength="57" x="169.9996" y="265.9951">validator</text><rect fill="#FEFECE" filter="url(#fkp0j5mgrz7rw)" height="50" rx="12.5" ry="12.5" style="stroke: #A80036; stroke-width: 1.5;" width="85" x="9" y="392"/><line style="stroke: #A80036; stroke-width: 1.5;" x1="9" x2="94" y1="418.2969" y2="418.2969"/><text fill="#000000" font-family="sans-serif" font-size="14" lengthAdjust="spacingAndGlyphs" textLength="65" x="19" y="409.9951">translator</text><rect fill="#FEFECE" filter="url(#fkp0j5mgrz7rw)" height="50" rx="12.5" ry="12.5" style="stroke: #A80036; stroke-width: 1.5;" width="61" x="6" y="520"/><line style="stroke: #A80036; stroke-width: 1.5;" x1="6" x2="67" y1="546.2969" y2="546.2969"/><text fill="#000000" font-family="sans-serif" font-size="14" lengthAdjust="spacingAndGlyphs" textLength="41" x="16" y="537.9951">setter</text><ellipse cx="115.2496" cy="658" fill="none" filter="url(#fkp0j5mgrz7rw)" rx="10" ry="10" style="stroke: #000000; stroke-width: 1.0;"/><ellipse cx="115.7496" cy="658.5" fill="#000000" rx="6" ry="6" style="stroke: none; stroke-width: 1.0;"/><rect fill="#FEFECE" filter="url(#fkp0j5mgrz7rw)" height="50" rx="12.5" ry="12.5" style="stroke: #A80036; stroke-width: 1.5;" width="88" x="22.25" y="730"/><line style="stroke: #A80036; stroke-width: 1.5;" x1="22.25" x2="110.25" y1="756.2969" y2="756.2969"/><text fill="#000000" font-family="sans-serif" font-size="14" lengthAdjust="spacingAndGlyphs" textLength="68" x="32.25" y="747.9951">codeerror</text><rect fill="#FEFECE" filter="url(#fkp0j5mgrz7rw)" height="50" rx="12.5" ry="12.5" style="stroke: #A80036; stroke-width: 1.5;" width="83" x="174.9996" y="520"/><line style="stroke: #A80036; stroke-width: 1.5;" x1="174.9996" x2="257.9996" y1="546.2969" y2="546.2969"/><text fill="#000000" font-family="sans-serif" font-size="14" lengthAdjust="spacingAndGlyphs" textLength="63" x="184.9996" y="537.9951">dataerror</text><!--link *start to getter--><path d="M402.2496,28.109 C402.2496,41.014 402.2496,65.21 402.2496,84.641 " fill="none" id="*start-getter" style="stroke: #A80036; stroke-width: 1.0;"/><polygon fill="#A80036" points="402.2496,89.981,406.2496,80.981,402.2496,84.981,398.2496,80.981,402.2496,89.981" style="stroke: #A80036; stroke-width: 1.0;"/><!--link getter to validator--><path d="M370.9846,128.603 C348.9966,138.238 319.4716,152.772 296.2496,170 C267.2856,191.488 239.3016,221.89 220.7056,243.907 " fill="none" id="getter-validator" style="stroke: #A80036; stroke-width: 1.0;"/><polygon fill="#A80036" points="217.3446,247.916,226.1925,243.5899,220.5574,244.0847,220.0625,238.4496,217.3446,247.916" style="stroke: #A80036; stroke-width: 1.0;"/><text fill="#000000" font-family="sans-serif" font-size="13" lengthAdjust="spacingAndGlyphs" textLength="67" x="302.2496" y="183.0669">Field value</text><text fill="#000000" font-family="sans-serif" font-size="13" lengthAdjust="spacingAndGlyphs" textLength="64" x="303.7496" y="198.1997">present in</text><text fill="#000000" font-family="sans-serif" font-size="13" lengthAdjust="spacingAndGlyphs" textLength="77" x="297.2496" y="213.3325">input record</text><!--link validator to translator--><path d="M159.9626,279.888 C130.4456,286.483 90.9502,300.155 68.25,328 C54.949,344.315 50.9584,367.961 50.1524,386.634 " fill="none" id="validator-translator" style="stroke: #A80036; stroke-width: 1.0;"/><polygon fill="#A80036" points="50.0044,391.759,54.265,382.8794,50.1502,386.7611,46.2684,382.6463,50.0044,391.759" style="stroke: #A80036; stroke-width: 1.0;"/><text fill="#000000" font-family="sans-serif" font-size="13" lengthAdjust="spacingAndGlyphs" textLength="67" x="69.25" y="341.5669">Field value</text><text fill="#000000" font-family="sans-serif" font-size="13" lengthAdjust="spacingAndGlyphs" textLength="59" x="73.25" y="356.6997">is correct</text><!--link translator to setter--><path d="M26.3037,442.187 C19.0417,450.831 12.0459,461.139 8.25,472 C3.2009,486.446 8.215,502.318 15.3249,515.475 " fill="none" id="translator-setter" style="stroke: #A80036; stroke-width: 1.0;"/><polygon fill="#A80036" points="17.8048,519.827,16.8239,510.0271,15.3292,515.4829,9.8733,513.9882,17.8048,519.827" style="stroke: #A80036; stroke-width: 1.0;"/><text fill="#000000" font-family="sans-serif" font-size="13" lengthAdjust="spacingAndGlyphs" textLength="53" x="9.25" y="485.0669">No error</text><!--link setter to *end--><path d="M53.3918,570.085 C69.9583,593.362 94.3484,627.632 106.9836,645.385 " fill="none" id="setter-*end" style="stroke: #A80036; stroke-width: 1.0;"/><polygon fill="#A80036" points="109.9306,649.526,107.9693,639.8744,107.0307,645.4528,101.4523,644.5143,109.9306,649.526" style="stroke: #A80036; stroke-width: 1.0;"/><text fill="#000000" font-family="sans-serif" font-size="13" lengthAdjust="spacingAndGlyphs" textLength="53" x="89.25" y="613.0669">No error</text><!--link setter to codeerror--><path d="M39.554,570.316 C42.9206,594.948 48.3317,634.139 53.25,668 C56.0038,686.9594 59.2211,708.2498 61.7661,724.9037 " fill="none" id="setter-codeerror" style="stroke: #A80036; stroke-width: 1.0;"/><polygon fill="#A80036" points="62.5331,729.9156,65.1255,720.414,61.7767,724.9732,57.2176,721.6243,62.5331,729.9156" style="stroke: #A80036; stroke-width: 1.0;"/><text fill="#000000" font-family="sans-serif" font-size="13" lengthAdjust="spacingAndGlyphs" textLength="31" x="54.25" y="662.0669">Error</text><!--link getter to dataerror--><path d="M400.8596,140.238 C396.6716,196.828 380.5256,340.535 321.2496,442 C304.0416,471.457 276.0106,498.066 253.2376,516.716 " fill="none" id="getter-dataerror" style="stroke: #A80036; stroke-width: 1.0;"/><polygon fill="#A80036" points="249.3416,519.872,258.853,517.3159,253.2271,516.7251,253.8179,511.0991,249.3416,519.872" style="stroke: #A80036; stroke-width: 1.0;"/><text fill="#000000" font-family="sans-serif" font-size="13" lengthAdjust="spacingAndGlyphs" textLength="31" x="369.2496" y="349.0669">Error</text><!--link getter to dataerror--><path d="M412.7516,140.265 C416.1806,149.405 419.5436,160.008 421.2496,170 C429.5556,218.632 418.9496,335.914 410.2496,362 C388.0036,428.708 372.3036,446.251 317.2496,490 C300.6026,503.229 280.2396,514.828 262.1696,523.851 " fill="none" id="getter-dataerror-1" style="stroke: #A80036; stroke-width: 1.0;"/><polygon fill="#A80036" points="257.6286,526.089,267.4698,525.6984,262.1136,523.8787,263.9333,518.5225,257.6286,526.089" style="stroke: #A80036; stroke-width: 1.0;"/><text fill="#000000" font-family="sans-serif" font-size="13" lengthAdjust="spacingAndGlyphs" textLength="83" x="418.2496" y="341.5669">Missing input</text><text fill="#000000" font-family="sans-serif" font-size="13" lengthAdjust="spacingAndGlyphs" textLength="64" x="427.7496" y="356.6997">field value</text><!--link validator to dataerror--><path d="M194.8216,298.021 C190.7086,330.714 185.0906,390.993 191.2496,442 C194.2726,467.03 201.3246,494.781 207.1706,515.01 " fill="none" id="validator-dataerror" style="stroke: #A80036; stroke-width: 1.0;"/><polygon fill="#A80036" points="208.6276,519.984,209.9362,510.2225,207.222,515.1857,202.2588,512.4715,208.6276,519.984" style="stroke: #A80036; stroke-width: 1.0;"/><text fill="#000000" font-family="sans-serif" font-size="13" lengthAdjust="spacingAndGlyphs" textLength="31" x="192.2496" y="421.0669">Error</text><!--link validator to dataerror--><path d="M207.6586,298.214 C211.0066,307.44 214.6006,318.112 217.2496,328 C235.9106,397.631 234.1766,418.467 225.2496,490 C224.2556,497.969 222.9366,506.561 221.6166,514.496 " fill="none" id="validator-dataerror-1" style="stroke: #A80036; stroke-width: 1.0;"/><polygon fill="#A80036" points="220.7066,519.869,226.1527,511.6628,221.5412,514.9391,218.2649,510.3276,220.7066,519.869" style="stroke: #A80036; stroke-width: 1.0;"/><text fill="#000000" font-family="sans-serif" font-size="13" lengthAdjust="spacingAndGlyphs" textLength="78" x="233.2496" y="421.0669">Invalid value</text><!--link translator to dataerror--><path d="M64.7719,442.081 C74.269,457.327 88.1261,476.618 104.25,490 C123.6306,506.085 148.6096,518.725 170.0586,527.719 " fill="none" id="translator-dataerror" style="stroke: #A80036; stroke-width: 1.0;"/><polygon fill="#A80036" points="174.8606,529.697,168.0625,522.5706,170.2375,527.7926,165.0155,529.9676,174.8606,529.697" style="stroke: #A80036; stroke-width: 1.0;"/><text fill="#000000" font-family="sans-serif" font-size="13" lengthAdjust="spacingAndGlyphs" textLength="31" x="105.25" y="485.0669">Error</text><!--link dataerror to *end--><path d="M195.1096,570.175 C182.7296,584.233 166.7296,602.233 152.2496,618 C143.4076,627.628 133.1656,638.395 125.7016,646.173 " fill="none" id="dataerror-*end" style="stroke: #A80036; stroke-width: 1.0;"/><polygon fill="#A80036" points="121.8676,650.16,130.989,646.445,125.3332,646.5559,125.2224,640.9001,121.8676,650.16" style="stroke: #A80036; stroke-width: 1.0;"/><!--link *end to codeerror--><path d="M108.6926,671.712 C101.0605,686.5103 88.2843,711.2804 78.7395,729.7855 " fill="none" id="*end-codeerror" style="stroke: #A80036; stroke-width: 1.0;"/><polygon fill="#A80036" points="111.0726,667.1,103.3914,673.2643,108.7802,671.5435,110.501,676.9323,111.0726,667.1" style="stroke: #A80036; stroke-width: 1.0;"/></g></svg>