<?xml version="1.0" encoding="UTF-8" standalone="no"?><svg xmlns="http://www.w3.org/2000/svg" xmlns:xlink="http://www.w3.org/1999/xlink" contentScriptType="application/ecmascript" contentStyleType="text/css" height="144px" preserveAspectRatio="none" style="width:345px;height:144px;" version="1.1" viewBox="0 0 345 144" width="345px" zoomAndPan="magnify"><defs><filter height="300%" id="fywae15uvx94x" width="300%" x="-1" y="-1"><feGaussianBlur result="blurOut" stdDeviation="2.0"/><feColorMatrix in="blurOut" result="blurOut2" type="matrix" values="0 0 0 0 0 0 0 0 0 0 0 0 0 0 0 0 0 0 .4 0"/><feOffset dx="4.0" dy="4.0" in="blurOut2" result="blurOut3"/><feBlend in="SourceGraphic" in2="blurOut3" mode="normal"/></filter></defs><g><!--class Field--><rect fill="#FEFECE" filter="url(#fywae15uvx94x)" height="124.8281" id="Field" style="stroke: #A80036; stroke-width: 1.5;" width="328" x="6" y="8.5"/><ellipse cx="151.25" cy="24.5" fill="#ADD1B2" rx="11" ry="11" style="stroke: #A80036; stroke-width: 1.0;"/><path d="M154.2188,30.1406 Q153.6406,30.4375 153,30.5781 Q152.3594,30.7344 151.6563,30.7344 Q149.1563,30.7344 147.8281,29.0938 Q146.5156,27.4375 146.5156,24.3125 Q146.5156,21.1875 147.8281,19.5313 Q149.1563,17.875 151.6563,17.875 Q152.3594,17.875 153,18.0313 Q153.6563,18.1875 154.2188,18.4844 L154.2188,21.2031 Q153.5938,20.625 153,20.3594 Q152.4063,20.0781 151.7813,20.0781 Q150.4375,20.0781 149.75,21.1563 Q149.0625,22.2188 149.0625,24.3125 Q149.0625,26.4063 149.75,27.4844 Q150.4375,28.5469 151.7813,28.5469 Q152.4063,28.5469 153,28.2813 Q153.5938,28 154.2188,27.4219 L154.2188,30.1406 Z "/><text fill="#000000" font-family="sans-serif" font-size="12" lengthAdjust="spacingAndGlyphs" textLength="29" x="171.75" y="28.6543">Field</text><line style="stroke: #A80036; stroke-width: 1.5;" x1="7" x2="333" y1="40.5" y2="40.5"/><text fill="#000000" font-family="sans-serif" font-size="11" lengthAdjust="spacingAndGlyphs" textLength="110" x="12" y="54.7104">boolean mandatory</text><line style="stroke: #A80036; stroke-width: 1.5;" x1="7" x2="333" y1="61.3047" y2="61.3047"/><text fill="#000000" font-family="sans-serif" font-size="11" lengthAdjust="spacingAndGlyphs" textLength="315" x="12" y="75.5151">OriginalFieldType getter(OriginalObjectType inputAlarm)</text><text fill="#000000" font-family="sans-serif" font-size="11" lengthAdjust="spacingAndGlyphs" textLength="160" x="12" y="88.3198">OriginalFieldType defaulter()</text><text fill="#000000" font-family="sans-serif" font-size="11" lengthAdjust="spacingAndGlyphs" textLength="266" x="12" y="101.1245">boolean validator(OriginalFieldType inputValue)</text><text fill="#000000" font-family="sans-serif" font-size="11" lengthAdjust="spacingAndGlyphs" textLength="316" x="12" y="113.9292">ResultFieldType translator(OriginalFieldType inputValue)</text><text fill="#000000" font-family="sans-serif" font-size="11" lengthAdjust="spacingAndGlyphs" textLength="225" x="12" y="126.7339">void setter(ResultFieldType resultValue)</text></g></svg>