<?xml version="1.0" encoding="UTF-8" standalone="no"?><svg xmlns="http://www.w3.org/2000/svg" xmlns:xlink="http://www.w3.org/1999/xlink" contentScriptType="application/ecmascript" contentStyleType="text/css" height="481px" preserveAspectRatio="none" style="width:293px;height:481px;" version="1.1" viewBox="0 0 293 481" width="293px" zoomAndPan="magnify"><defs><filter height="300%" id="f12z1ohcgcr8gn" width="300%" x="-1" y="-1"><feGaussianBlur result="blurOut" stdDeviation="2.0"/><feColorMatrix in="blurOut" result="blurOut2" type="matrix" values="0 0 0 0 0 0 0 0 0 0 0 0 0 0 0 0 0 0 .4 0"/><feOffset dx="4.0" dy="4.0" in="blurOut2" result="blurOut3"/><feBlend in="SourceGraphic" in2="blurOut3" mode="normal"/></filter></defs><g><ellipse cx="65" cy="20" fill="#000000" filter="url(#f12z1ohcgcr8gn)" rx="10" ry="10" style="stroke: none; stroke-width: 1.0;"/><rect fill="#FEFECE" filter="url(#f12z1ohcgcr8gn)" height="33.9688" rx="12.5" ry="12.5" style="stroke: #A80036; stroke-width: 1.5;" width="90" x="20" y="71.3989"/><text fill="#000000" font-family="sans-serif" font-size="12" lengthAdjust="spacingAndGlyphs" textLength="70" x="30" y="92.5376">First phase</text><rect fill="#FEFECE" filter="url(#f12z1ohcgcr8gn)" height="33.9688" rx="12.5" ry="12.5" style="stroke: #A80036; stroke-width: 1.5;" width="110" x="10" y="146.7666"/><text fill="#000000" font-family="sans-serif" font-size="12" lengthAdjust="spacingAndGlyphs" textLength="90" x="20" y="167.9053">Second phase</text><rect fill="#FEFECE" filter="url(#f12z1ohcgcr8gn)" height="33.9688" rx="12.5" ry="12.5" style="stroke: #A80036; stroke-width: 1.5;" width="94" x="18" y="222.1343"/><text fill="#000000" font-family="sans-serif" font-size="12" lengthAdjust="spacingAndGlyphs" textLength="74" x="28" y="243.2729">Third phase</text><rect fill="#FEFECE" filter="url(#f12z1ohcgcr8gn)" height="33.9688" rx="12.5" ry="12.5" style="stroke: #A80036; stroke-width: 1.5;" width="32" x="49" y="297.502"/><text fill="#000000" font-family="sans-serif" font-size="12" lengthAdjust="spacingAndGlyphs" textLength="12" x="59" y="318.6406">...</text><rect fill="#FEFECE" filter="url(#f12z1ohcgcr8gn)" height="33.9688" rx="12.5" ry="12.5" style="stroke: #A80036; stroke-width: 1.5;" width="89" x="20.5" y="372.8696"/><text fill="#000000" font-family="sans-serif" font-size="12" lengthAdjust="spacingAndGlyphs" textLength="69" x="30.5" y="394.0083">Last phase</text><ellipse cx="65" cy="459.2373" fill="#FFFFFF" filter="url(#f12z1ohcgcr8gn)" rx="11" ry="11" style="stroke: #000000; stroke-width: 1.0;"/><ellipse cx="65" cy="459.2373" fill="#000000" rx="6" ry="6" style="stroke: #7F7F7F; stroke-width: 1.0;"/><line style="stroke: #A80036; stroke-width: 1.5;" x1="65" x2="65" y1="30" y2="71.3989"/><polygon fill="#A80036" points="61,61.3989,65,71.3989,69,61.3989,65,65.3989" style="stroke: #A80036; stroke-width: 1.0;"/><text fill="#000000" font-family="sans-serif" font-size="11" lengthAdjust="spacingAndGlyphs" textLength="187" x="69" y="51.3047">Data packet from source system</text><line style="stroke: #A80036; stroke-width: 1.5;" x1="65" x2="65" y1="105.3677" y2="146.7666"/><polygon fill="#A80036" points="61,136.7666,65,146.7666,69,136.7666,65,140.7666" style="stroke: #A80036; stroke-width: 1.0;"/><text fill="#000000" font-family="sans-serif" font-size="11" lengthAdjust="spacingAndGlyphs" textLength="82" x="69" y="126.6724">Set of records</text><line style="stroke: #A80036; stroke-width: 1.5;" x1="65" x2="65" y1="180.7354" y2="222.1343"/><polygon fill="#A80036" points="61,212.1343,65,222.1343,69,212.1343,65,216.1343" style="stroke: #A80036; stroke-width: 1.0;"/><text fill="#000000" font-family="sans-serif" font-size="11" lengthAdjust="spacingAndGlyphs" textLength="82" x="69" y="202.04">Set of records</text><line style="stroke: #A80036; stroke-width: 1.5;" x1="65" x2="65" y1="256.103" y2="297.502"/><polygon fill="#A80036" points="61,287.502,65,297.502,69,287.502,65,291.502" style="stroke: #A80036; stroke-width: 1.0;"/><text fill="#000000" font-family="sans-serif" font-size="11" lengthAdjust="spacingAndGlyphs" textLength="82" x="69" y="277.4077">Set of records</text><line style="stroke: #A80036; stroke-width: 1.5;" x1="65" x2="65" y1="331.4707" y2="372.8696"/><polygon fill="#A80036" points="61,362.8696,65,372.8696,69,362.8696,65,366.8696" style="stroke: #A80036; stroke-width: 1.0;"/><text fill="#000000" font-family="sans-serif" font-size="11" lengthAdjust="spacingAndGlyphs" textLength="82" x="69" y="352.7754">Set of records</text><line style="stroke: #A80036; stroke-width: 1.5;" x1="65" x2="65" y1="406.8384" y2="448.2373"/><polygon fill="#A80036" points="61,438.2373,65,448.2373,69,438.2373,65,442.2373" style="stroke: #A80036; stroke-width: 1.0;"/><text fill="#000000" font-family="sans-serif" font-size="11" lengthAdjust="spacingAndGlyphs" textLength="212" x="69" y="428.1431">Output data packet for target system</text></g></svg>