<?xml version="1.0" encoding="UTF-8" standalone="no"?><svg xmlns="http://www.w3.org/2000/svg" xmlns:xlink="http://www.w3.org/1999/xlink" contentScriptType="application/ecmascript" contentStyleType="text/css" height="368px" preserveAspectRatio="none" style="width:476px;height:368px;" version="1.1" viewBox="0 0 476 368" width="476px" zoomAndPan="magnify"><defs><filter height="300%" id="fdtgpxuqgmcbl" width="300%" x="-1" y="-1"><feGaussianBlur result="blurOut" stdDeviation="2.0"/><feColorMatrix in="blurOut" result="blurOut2" type="matrix" values="0 0 0 0 0 0 0 0 0 0 0 0 0 0 0 0 0 0 .4 0"/><feOffset dx="4.0" dy="4.0" in="blurOut2" result="blurOut3"/><feBlend in="SourceGraphic" in2="blurOut3" mode="normal"/></filter></defs><g><ellipse cx="228.5" cy="20" fill="#000000" filter="url(#fdtgpxuqgmcbl)" rx="10" ry="10" style="stroke: none; stroke-width: 1.0;"/><rect fill="#FEFECE" filter="url(#fdtgpxuqgmcbl)" height="33.9688" rx="12.5" ry="12.5" style="stroke: #A80036; stroke-width: 1.5;" width="122" x="167.5" y="115.3989"/><text fill="#000000" font-family="sans-serif" font-size="12" lengthAdjust="spacingAndGlyphs" textLength="102" x="177.5" y="136.5376">Evaluate criteria</text><rect fill="#FEFECE" filter="url(#fdtgpxuqgmcbl)" height="33.9688" rx="12.5" ry="12.5" style="stroke: #A80036; stroke-width: 1.5;" width="286" x="85.5" y="184.3677"/><text fill="#000000" font-family="sans-serif" font-size="12" lengthAdjust="spacingAndGlyphs" textLength="266" x="95.5" y="205.5063">Produce zero, one or many output records</text><polygon fill="#FEFECE" filter="url(#fdtgpxuqgmcbl)" points="167.5,71.3989,289.5,71.3989,301.5,83.3989,289.5,95.3989,167.5,95.3989,155.5,83.3989,167.5,71.3989" style="stroke: #A80036; stroke-width: 1.5;"/><text fill="#000000" font-family="sans-serif" font-size="11" lengthAdjust="spacingAndGlyphs" textLength="122" x="167.5" y="87.207">For each input record</text><rect fill="#FEFECE" filter="url(#fdtgpxuqgmcbl)" height="33.9688" rx="12.5" ry="12.5" style="stroke: #A80036; stroke-width: 1.5;" width="437" x="10" y="260.3364"/><text fill="#000000" font-family="sans-serif" font-size="12" lengthAdjust="spacingAndGlyphs" textLength="417" x="20" y="281.4751">Aggregate output records from all records into a single output set</text><ellipse cx="228.5" cy="346.7041" fill="#FFFFFF" filter="url(#fdtgpxuqgmcbl)" rx="11" ry="11" style="stroke: #000000; stroke-width: 1.0;"/><ellipse cx="228.5" cy="346.7041" fill="#000000" rx="6" ry="6" style="stroke: #7F7F7F; stroke-width: 1.0;"/><line style="stroke: #A80036; stroke-width: 1.5;" x1="228.5" x2="228.5" y1="149.3677" y2="184.3677"/><polygon fill="#A80036" points="224.5,174.3677,228.5,184.3677,232.5,174.3677,228.5,178.3677" style="stroke: #A80036; stroke-width: 1.0;"/><line style="stroke: #A80036; stroke-width: 1.5;" x1="228.5" x2="228.5" y1="95.3989" y2="115.3989"/><polygon fill="#A80036" points="224.5,105.3989,228.5,115.3989,232.5,105.3989,228.5,109.3989" style="stroke: #A80036; stroke-width: 1.0;"/><line style="stroke: #A80036; stroke-width: 1.5;" x1="228.5" x2="228.5" y1="218.3364" y2="228.3364"/><line style="stroke: #A80036; stroke-width: 1.5;" x1="228.5" x2="383.5" y1="228.3364" y2="228.3364"/><polygon fill="#A80036" points="379.5,164.8677,383.5,154.8677,387.5,164.8677,383.5,160.8677" style="stroke: #A80036; stroke-width: 1.5;"/><line style="stroke: #A80036; stroke-width: 1.5;" x1="383.5" x2="383.5" y1="83.3989" y2="228.3364"/><line style="stroke: #A80036; stroke-width: 1.5;" x1="383.5" x2="301.5" y1="83.3989" y2="83.3989"/><polygon fill="#A80036" points="311.5,79.3989,301.5,83.3989,311.5,87.3989,307.5,83.3989" style="stroke: #A80036; stroke-width: 1.0;"/><line style="stroke: #A80036; stroke-width: 1.5;" x1="155.5" x2="73.5" y1="83.3989" y2="83.3989"/><polygon fill="#A80036" points="69.5,150.8677,73.5,160.8677,77.5,150.8677,73.5,154.8677" style="stroke: #A80036; stroke-width: 1.5;"/><line style="stroke: #A80036; stroke-width: 1.5;" x1="73.5" x2="73.5" y1="83.3989" y2="240.3364"/><line style="stroke: #A80036; stroke-width: 1.5;" x1="73.5" x2="228.5" y1="240.3364" y2="240.3364"/><line style="stroke: #A80036; stroke-width: 1.5;" x1="228.5" x2="228.5" y1="240.3364" y2="260.3364"/><polygon fill="#A80036" points="224.5,250.3364,228.5,260.3364,232.5,250.3364,228.5,254.3364" style="stroke: #A80036; stroke-width: 1.0;"/><line style="stroke: #A80036; stroke-width: 1.5;" x1="228.5" x2="228.5" y1="30" y2="71.3989"/><polygon fill="#A80036" points="224.5,61.3989,228.5,71.3989,232.5,61.3989,228.5,65.3989" style="stroke: #A80036; stroke-width: 1.0;"/><text fill="#000000" font-family="sans-serif" font-size="11" lengthAdjust="spacingAndGlyphs" textLength="232" x="232.5" y="51.3047">A set of zero, one or many input records</text><line style="stroke: #A80036; stroke-width: 1.5;" x1="228.5" x2="228.5" y1="294.3052" y2="335.7041"/><polygon fill="#A80036" points="224.5,325.7041,228.5,335.7041,232.5,325.7041,228.5,329.7041" style="stroke: #A80036; stroke-width: 1.0;"/><text fill="#000000" font-family="sans-serif" font-size="11" lengthAdjust="spacingAndGlyphs" textLength="232" x="232.5" y="315.6099">A set of zero, one or many input records</text></g></svg>