<?xml version="1.0" encoding="UTF-8" standalone="no"?><svg xmlns="http://www.w3.org/2000/svg" xmlns:xlink="http://www.w3.org/1999/xlink" contentScriptType="application/ecmascript" contentStyleType="text/css" height="339px" preserveAspectRatio="none" style="width:80px;height:339px;" version="1.1" viewBox="0 0 80 339" width="80px" zoomAndPan="magnify"><defs><filter height="300%" id="f84xzklipnwui" width="300%" x="-1" y="-1"><feGaussianBlur result="blurOut" stdDeviation="2.0"/><feColorMatrix in="blurOut" result="blurOut2" type="matrix" values="0 0 0 0 0 0 0 0 0 0 0 0 0 0 0 0 0 0 .4 0"/><feOffset dx="4.0" dy="4.0" in="blurOut2" result="blurOut3"/><feBlend in="SourceGraphic" in2="blurOut3" mode="normal"/></filter></defs><g><ellipse cx="37" cy="18" fill="#000000" filter="url(#f84xzklipnwui)" rx="10" ry="10" style="stroke: none; stroke-width: 1.0;"/><rect fill="#FEFECE" filter="url(#f84xzklipnwui)" height="50" rx="12.5" ry="12.5" style="stroke: #A80036; stroke-width: 1.5;" width="62" x="6" y="88"/><line style="stroke: #A80036; stroke-width: 1.5;" x1="6" x2="68" y1="114.2969" y2="114.2969"/><text fill="#000000" font-family="sans-serif" font-size="14" lengthAdjust="spacingAndGlyphs" textLength="42" x="16" y="105.9951">getter</text><rect fill="#FEFECE" filter="url(#f84xzklipnwui)" height="50" rx="12.5" ry="12.5" style="stroke: #A80036; stroke-width: 1.5;" width="61" x="6.75" y="198"/><line style="stroke: #A80036; stroke-width: 1.5;" x1="6.75" x2="67.75" y1="224.2969" y2="224.2969"/><text fill="#000000" font-family="sans-serif" font-size="14" lengthAdjust="spacingAndGlyphs" textLength="41" x="16.75" y="215.9951">setter</text><ellipse cx="37" cy="318" fill="none" filter="url(#f84xzklipnwui)" rx="10" ry="10" style="stroke: #000000; stroke-width: 1.0;"/><ellipse cx="37.5" cy="318.5" fill="#000000" rx="6" ry="6" style="stroke: none; stroke-width: 1.0;"/><!--link *start to getter--><path d="M37,28.257 C37,40.856 37,63.981 37,82.743 " fill="none" id="*start-getter" style="stroke: #A80036; stroke-width: 1.0;"/><polygon fill="#A80036" points="37,87.907,41,78.907,37,82.907,33,78.907,37,87.907" style="stroke: #A80036; stroke-width: 1.0;"/><!--link getter to setter--><path d="M37,138.237 C37,154.357 37,175.621 37,192.691 " fill="none" id="getter-setter" style="stroke: #A80036; stroke-width: 1.0;"/><polygon fill="#A80036" points="37,197.844,41,188.844,37,192.844,33,188.844,37,197.844" style="stroke: #A80036; stroke-width: 1.0;"/><!--link setter to *end--><path d="M37,248.4347 C37,265.5384 37,287.827 37,302.2736 " fill="none" id="setter-*end" style="stroke: #A80036; stroke-width: 1.0;"/><polygon fill="#A80036" points="37,307.5817,41,298.5817,37,302.5817,33,298.5817,37,307.5817" style="stroke: #A80036; stroke-width: 1.0;"/></g></svg>