<?xml version="1.0" encoding="UTF-8" standalone="no"?><svg xmlns="http://www.w3.org/2000/svg" xmlns:xlink="http://www.w3.org/1999/xlink" contentScriptType="application/ecmascript" contentStyleType="text/css" height="450px" preserveAspectRatio="none" style="width:540px;height:450px;" version="1.1" viewBox="0 0 540 450" width="540px" zoomAndPan="magnify"><defs><filter height="300%" id="f1easg8nby06dt" width="300%" x="-1" y="-1"><feGaussianBlur result="blurOut" stdDeviation="2.0"/><feColorMatrix in="blurOut" result="blurOut2" type="matrix" values="0 0 0 0 0 0 0 0 0 0 0 0 0 0 0 0 0 0 .4 0"/><feOffset dx="4.0" dy="4.0" in="blurOut2" result="blurOut3"/><feBlend in="SourceGraphic" in2="blurOut3" mode="normal"/></filter></defs><g><!--class Transformer--><rect fill="#FEFECE" filter="url(#f1easg8nby06dt)" height="48" id="Transformer" style="stroke: #A80036; stroke-width: 1.5;" width="108" x="405" y="35"/><ellipse cx="420" cy="51" fill="#ADD1B2" rx="11" ry="11" style="stroke: #A80036; stroke-width: 1.0;"/><path d="M422.9688,56.6406 Q422.3906,56.9375 421.75,57.0781 Q421.1094,57.2344 420.4063,57.2344 Q417.9063,57.2344 416.5781,55.5938 Q415.2656,53.9375 415.2656,50.8125 Q415.2656,47.6875 416.5781,46.0313 Q417.9063,44.375 420.4063,44.375 Q421.1094,44.375 421.75,44.5313 Q422.4063,44.6875 422.9688,44.9844 L422.9688,47.7031 Q422.3438,47.125 421.75,46.8594 Q421.1563,46.5781 420.5313,46.5781 Q419.1875,46.5781 418.5,47.6563 Q417.8125,48.7188 417.8125,50.8125 Q417.8125,52.9063 418.5,53.9844 Q419.1875,55.0469 420.5313,55.0469 Q421.1563,55.0469 421.75,54.7813 Q422.3438,54.5 422.9688,53.9219 L422.9688,56.6406 Z "/><text fill="#000000" font-family="sans-serif" font-size="12" lengthAdjust="spacingAndGlyphs" textLength="76" x="434" y="55.1543">Transformer</text><line style="stroke: #A80036; stroke-width: 1.5;" x1="406" x2="512" y1="67" y2="67"/><line style="stroke: #A80036; stroke-width: 1.5;" x1="406" x2="512" y1="75" y2="75"/><!--class Criteria--><rect fill="#FEFECE" filter="url(#f1easg8nby06dt)" height="48" id="Criteria" style="stroke: #A80036; stroke-width: 1.5;" width="77" x="197.75" y="188"/><ellipse cx="212.75" cy="204" fill="#ADD1B2" rx="11" ry="11" style="stroke: #A80036; stroke-width: 1.0;"/><path d="M215.7188,209.6406 Q215.1406,209.9375 214.5,210.0781 Q213.8594,210.2344 213.1563,210.2344 Q210.6563,210.2344 209.3281,208.5938 Q208.0156,206.9375 208.0156,203.8125 Q208.0156,200.6875 209.3281,199.0313 Q210.6563,197.375 213.1563,197.375 Q213.8594,197.375 214.5,197.5313 Q215.1563,197.6875 215.7188,197.9844 L215.7188,200.7031 Q215.0938,200.125 214.5,199.8594 Q213.9063,199.5781 213.2813,199.5781 Q211.9375,199.5781 211.25,200.6563 Q210.5625,201.7188 210.5625,203.8125 Q210.5625,205.9063 211.25,206.9844 Q211.9375,208.0469 213.2813,208.0469 Q213.9063,208.0469 214.5,207.7813 Q215.0938,207.5 215.7188,206.9219 L215.7188,209.6406 Z "/><text fill="#000000" font-family="sans-serif" font-size="12" lengthAdjust="spacingAndGlyphs" textLength="45" x="226.75" y="208.1543">Criteria</text><line style="stroke: #A80036; stroke-width: 1.5;" x1="198.75" x2="273.75" y1="220" y2="220"/><line style="stroke: #A80036; stroke-width: 1.5;" x1="198.75" x2="273.75" y1="228" y2="228"/><path d="M6,8.5 L6,109.2969 A0,0 0 0 0 6,109.2969 L199.85,109.2969 L228.633,187.823 L207.85,109.2969 L370,109.2969 A0,0 0 0 0 370,109.2969 L370,18.5 L360,8.5 L6,8.5 A0,0 0 0 0 6,8.5 " fill="#FBFB77" filter="url(#f1easg8nby06dt)" style="stroke: #A80036; stroke-width: 1.0;"/><path d="M360,8.5 L360,18.5 L370,18.5 L360,8.5 " fill="#FBFB77" style="stroke: #A80036; stroke-width: 1.0;"/><text fill="#000000" font-family="sans-serif" font-size="13" lengthAdjust="spacingAndGlyphs" textLength="343" x="12" y="25.5669">If defined, determines if input record should be copied</text><text fill="#000000" font-family="sans-serif" font-size="13" lengthAdjust="spacingAndGlyphs" textLength="326" x="12" y="40.6997">to output unaltered or if a mapping table should be</text><text fill="#000000" font-family="sans-serif" font-size="13" lengthAdjust="spacingAndGlyphs" textLength="259" x="12" y="55.8325">used to construct new translated record.</text><text fill="#000000" font-family="sans-serif" font-size="13" lengthAdjust="spacingAndGlyphs" textLength="0" x="16" y="70.9653"/><text fill="#000000" font-family="sans-serif" font-size="13" lengthAdjust="spacingAndGlyphs" textLength="322" x="12" y="86.0981">If multiple mapping tables are defined, determines</text><text fill="#000000" font-family="sans-serif" font-size="13" lengthAdjust="spacingAndGlyphs" textLength="179" x="12" y="101.231">which mapping table to use.</text><!--class Mapping table--><rect fill="#FEFECE" filter="url(#f1easg8nby06dt)" height="48" id="Mapping table" style="stroke: #A80036; stroke-width: 1.5;" width="121" x="398.75" y="188"/><ellipse cx="413.75" cy="204" fill="#ADD1B2" rx="11" ry="11" style="stroke: #A80036; stroke-width: 1.0;"/><path d="M416.7188,209.6406 Q416.1406,209.9375 415.5,210.0781 Q414.8594,210.2344 414.1563,210.2344 Q411.6563,210.2344 410.3281,208.5938 Q409.0156,206.9375 409.0156,203.8125 Q409.0156,200.6875 410.3281,199.0313 Q411.6563,197.375 414.1563,197.375 Q414.8594,197.375 415.5,197.5313 Q416.1563,197.6875 416.7188,197.9844 L416.7188,200.7031 Q416.0938,200.125 415.5,199.8594 Q414.9063,199.5781 414.2813,199.5781 Q412.9375,199.5781 412.25,200.6563 Q411.5625,201.7188 411.5625,203.8125 Q411.5625,205.9063 412.25,206.9844 Q412.9375,208.0469 414.2813,208.0469 Q414.9063,208.0469 415.5,207.7813 Q416.0938,207.5 416.7188,206.9219 L416.7188,209.6406 Z "/><text fill="#000000" font-family="sans-serif" font-size="12" lengthAdjust="spacingAndGlyphs" textLength="89" x="427.75" y="208.1543">Mapping table</text><line style="stroke: #A80036; stroke-width: 1.5;" x1="399.75" x2="518.75" y1="220" y2="220"/><line style="stroke: #A80036; stroke-width: 1.5;" x1="399.75" x2="518.75" y1="228" y2="228"/><!--class Row--><rect fill="#FEFECE" filter="url(#f1easg8nby06dt)" height="124.8281" id="Row" style="stroke: #A80036; stroke-width: 1.5;" width="125" x="396.75" y="314.5"/><ellipse cx="442.5" cy="330.5" fill="#ADD1B2" rx="11" ry="11" style="stroke: #A80036; stroke-width: 1.0;"/><path d="M445.4688,336.1406 Q444.8906,336.4375 444.25,336.5781 Q443.6094,336.7344 442.9063,336.7344 Q440.4063,336.7344 439.0781,335.0938 Q437.7656,333.4375 437.7656,330.3125 Q437.7656,327.1875 439.0781,325.5313 Q440.4063,323.875 442.9063,323.875 Q443.6094,323.875 444.25,324.0313 Q444.9063,324.1875 445.4688,324.4844 L445.4688,327.2031 Q444.8438,326.625 444.25,326.3594 Q443.6563,326.0781 443.0313,326.0781 Q441.6875,326.0781 441,327.1563 Q440.3125,328.2188 440.3125,330.3125 Q440.3125,332.4063 441,333.4844 Q441.6875,334.5469 443.0313,334.5469 Q443.6563,334.5469 444.25,334.2813 Q444.8438,334 445.4688,333.4219 L445.4688,336.1406 Z "/><text fill="#000000" font-family="sans-serif" font-size="12" lengthAdjust="spacingAndGlyphs" textLength="25" x="463" y="334.6543">Row</text><line style="stroke: #A80036; stroke-width: 1.5;" x1="397.75" x2="520.75" y1="346.5" y2="346.5"/><text fill="#000000" font-family="sans-serif" font-size="11" lengthAdjust="spacingAndGlyphs" textLength="113" x="402.75" y="360.7104">Field optionality flag</text><text fill="#000000" font-family="sans-serif" font-size="11" lengthAdjust="spacingAndGlyphs" textLength="64" x="402.75" y="373.5151">Field getter</text><text fill="#000000" font-family="sans-serif" font-size="11" lengthAdjust="spacingAndGlyphs" textLength="81" x="402.75" y="386.3198">Field defaulter</text><text fill="#000000" font-family="sans-serif" font-size="11" lengthAdjust="spacingAndGlyphs" textLength="79" x="402.75" y="399.1245">Field validator</text><text fill="#000000" font-family="sans-serif" font-size="11" lengthAdjust="spacingAndGlyphs" textLength="86" x="402.75" y="411.9292">Field translator</text><text fill="#000000" font-family="sans-serif" font-size="11" lengthAdjust="spacingAndGlyphs" textLength="64" x="402.75" y="424.7339">Field setter</text><line style="stroke: #A80036; stroke-width: 1.5;" x1="397.75" x2="520.75" y1="431.3281" y2="431.3281"/><!--link Transformer to Criteria--><path d="M418.594,90.731 C408.839,97.504 398.262,104.338 388,110 C357.647,126.747 345.365,121.576 316,140 C294.607,153.422 273.366,172.621 258.153,187.671 " fill="none" id="Transformer-Criteria" style="stroke: #A80036; stroke-width: 1.0;"/><polygon fill="#A80036" points="429.196,83.177,421.9884,83.4007,419.4227,90.14,426.6304,89.9163,429.196,83.177" style="stroke: #A80036; stroke-width: 1.0;"/><text fill="#000000" font-family="sans-serif" font-size="13" lengthAdjust="spacingAndGlyphs" textLength="132" x="317" y="153.0669">evaluates per record</text><text fill="#000000" font-family="sans-serif" font-size="13" lengthAdjust="spacingAndGlyphs" textLength="24" x="234.9892" y="176.9806">0..1</text><!--link Transformer to Mapping table--><path d="M459,96.313 C459,124.801 459,163.589 459,187.959 " fill="none" id="Transformer-Mapping table" style="stroke: #A80036; stroke-width: 1.0;"/><polygon fill="#A80036" points="459,83.263,455,89.263,459,95.263,463,89.263,459,83.263" style="stroke: #A80036; stroke-width: 1.0;"/><text fill="#000000" font-family="sans-serif" font-size="13" lengthAdjust="spacingAndGlyphs" textLength="30" x="460" y="153.0669">uses</text><text fill="#000000" font-family="sans-serif" font-size="13" lengthAdjust="spacingAndGlyphs" textLength="23" x="432.2109" y="176.9221">1..*</text><!--link Mapping table to Row--><path d="M459,249.015 C459,268.218 459,292.378 459,314.457 " fill="none" id="Mapping table-Row" style="stroke: #A80036; stroke-width: 1.0;"/><polygon fill="#A80036" points="459,236.008,455,242.008,459,248.008,463,242.008,459,236.008" style="stroke: #A80036; stroke-width: 1.0;"/><text fill="#000000" font-family="sans-serif" font-size="13" lengthAdjust="spacingAndGlyphs" textLength="68" x="460" y="279.0669">consists of</text><text fill="#000000" font-family="sans-serif" font-size="13" lengthAdjust="spacingAndGlyphs" textLength="23" x="433.6852" y="303.2133">1..*</text></g></svg>