<?xml version="1.0" encoding="UTF-8" standalone="no"?><svg xmlns="http://www.w3.org/2000/svg" xmlns:xlink="http://www.w3.org/1999/xlink" contentScriptType="application/ecmascript" contentStyleType="text/css" height="339px" preserveAspectRatio="none" style="width:99px;height:339px;" version="1.1" viewBox="0 0 99 339" width="99px" zoomAndPan="magnify"><defs><filter height="300%" id="fikbqsd5w8s2i" width="300%" x="-1" y="-1"><feGaussianBlur result="blurOut" stdDeviation="2.0"/><feColorMatrix in="blurOut" result="blurOut2" type="matrix" values="0 0 0 0 0 0 0 0 0 0 0 0 0 0 0 0 0 0 .4 0"/><feOffset dx="4.0" dy="4.0" in="blurOut2" result="blurOut3"/><feBlend in="SourceGraphic" in2="blurOut3" mode="normal"/></filter></defs><g><ellipse cx="46.25" cy="18" fill="#000000" filter="url(#fikbqsd5w8s2i)" rx="10" ry="10" style="stroke: none; stroke-width: 1.0;"/><rect fill="#FEFECE" filter="url(#fikbqsd5w8s2i)" height="50" rx="12.5" ry="12.5" style="stroke: #A80036; stroke-width: 1.5;" width="81" x="6" y="88"/><line style="stroke: #A80036; stroke-width: 1.5;" x1="6" x2="87" y1="114.2969" y2="114.2969"/><text fill="#000000" font-family="sans-serif" font-size="14" lengthAdjust="spacingAndGlyphs" textLength="61" x="16" y="105.9951">defaulter</text><rect fill="#FEFECE" filter="url(#fikbqsd5w8s2i)" height="50" rx="12.5" ry="12.5" style="stroke: #A80036; stroke-width: 1.5;" width="61" x="16" y="198"/><line style="stroke: #A80036; stroke-width: 1.5;" x1="16" x2="77" y1="224.2969" y2="224.2969"/><text fill="#000000" font-family="sans-serif" font-size="14" lengthAdjust="spacingAndGlyphs" textLength="41" x="26" y="215.9951">setter</text><ellipse cx="46.25" cy="318" fill="none" filter="url(#fikbqsd5w8s2i)" rx="10" ry="10" style="stroke: #000000; stroke-width: 1.0;"/><ellipse cx="46.75" cy="318.5" fill="#000000" rx="6" ry="6" style="stroke: none; stroke-width: 1.0;"/><!--link *start to defaulter--><path d="M46.25,28.257 C46.25,40.856 46.25,63.981 46.25,82.743 " fill="none" id="*start-defaulter" style="stroke: #A80036; stroke-width: 1.0;"/><polygon fill="#A80036" points="46.25,87.907,50.25,78.907,46.25,82.907,42.25,78.907,46.25,87.907" style="stroke: #A80036; stroke-width: 1.0;"/><!--link defaulter to setter--><path d="M46.25,138.237 C46.25,154.357 46.25,175.621 46.25,192.691 " fill="none" id="defaulter-setter" style="stroke: #A80036; stroke-width: 1.0;"/><polygon fill="#A80036" points="46.25,197.844,50.25,188.844,46.25,192.844,42.25,188.844,46.25,197.844" style="stroke: #A80036; stroke-width: 1.0;"/><!--link setter to *end--><path d="M46.25,248.4347 C46.25,265.5384 46.25,287.827 46.25,302.2736 " fill="none" id="setter-*end" style="stroke: #A80036; stroke-width: 1.0;"/><polygon fill="#A80036" points="46.25,307.5817,50.25,298.5817,46.25,302.5817,42.25,298.5817,46.25,307.5817" style="stroke: #A80036; stroke-width: 1.0;"/></g></svg>