<?xml version="1.0" encoding="UTF-8" standalone="no"?><svg xmlns="http://www.w3.org/2000/svg" xmlns:xlink="http://www.w3.org/1999/xlink" contentScriptType="application/ecmascript" contentStyleType="text/css" height="725px" preserveAspectRatio="none" style="width:150px;height:725px;" version="1.1" viewBox="0 0 150 725" width="150px" zoomAndPan="magnify"><defs><filter height="300%" id="fdgksb7e1p77p" width="300%" x="-1" y="-1"><feGaussianBlur result="blurOut" stdDeviation="2.0"/><feColorMatrix in="blurOut" result="blurOut2" type="matrix" values="0 0 0 0 0 0 0 0 0 0 0 0 0 0 0 0 0 0 .4 0"/><feOffset dx="4.0" dy="4.0" in="blurOut2" result="blurOut3"/><feBlend in="SourceGraphic" in2="blurOut3" mode="normal"/></filter></defs><g><ellipse cx="48.25" cy="18" fill="#000000" filter="url(#fdgksb7e1p77p)" rx="10" ry="10" style="stroke: none; stroke-width: 1.0;"/><rect fill="#FEFECE" filter="url(#fdgksb7e1p77p)" height="50" rx="12.5" ry="12.5" style="stroke: #A80036; stroke-width: 1.5;" width="62" x="17.25" y="106"/><line style="stroke: #A80036; stroke-width: 1.5;" x1="17.25" x2="79.25" y1="132.2969" y2="132.2969"/><text fill="#000000" font-family="sans-serif" font-size="14" lengthAdjust="spacingAndGlyphs" textLength="42" x="27.25" y="123.9951">getter</text><rect fill="#FEFECE" filter="url(#fdgksb7e1p77p)" height="50" rx="12.5" ry="12.5" style="stroke: #A80036; stroke-width: 1.5;" width="77" x="10" y="264"/><line style="stroke: #A80036; stroke-width: 1.5;" x1="10" x2="87" y1="290.2969" y2="290.2969"/><text fill="#000000" font-family="sans-serif" font-size="14" lengthAdjust="spacingAndGlyphs" textLength="57" x="20" y="281.9951">validator</text><rect fill="#FEFECE" filter="url(#fdgksb7e1p77p)" height="50" rx="12.5" ry="12.5" style="stroke: #A80036; stroke-width: 1.5;" width="85" x="6" y="422"/><line style="stroke: #A80036; stroke-width: 1.5;" x1="6" x2="91" y1="448.2969" y2="448.2969"/><text fill="#000000" font-family="sans-serif" font-size="14" lengthAdjust="spacingAndGlyphs" textLength="65" x="16" y="439.9951">translator</text><rect fill="#FEFECE" filter="url(#fdgksb7e1p77p)" height="50" rx="12.5" ry="12.5" style="stroke: #A80036; stroke-width: 1.5;" width="61" x="18" y="566"/><line style="stroke: #A80036; stroke-width: 1.5;" x1="18" x2="79" y1="592.2969" y2="592.2969"/><text fill="#000000" font-family="sans-serif" font-size="14" lengthAdjust="spacingAndGlyphs" textLength="41" x="28" y="583.9951">setter</text><ellipse cx="48.25" cy="704" fill="none" filter="url(#fdgksb7e1p77p)" rx="10" ry="10" style="stroke: #000000; stroke-width: 1.0;"/><ellipse cx="48.75" cy="704.5" fill="#000000" rx="6" ry="6" style="stroke: none; stroke-width: 1.0;"/><!--link *start to getter--><path d="M48.25,28.084 C48.25,43.745 48.25,76.474 48.25,100.637 " fill="none" id="*start-getter" style="stroke: #A80036; stroke-width: 1.0;"/><polygon fill="#A80036" points="48.25,105.653,52.25,96.653,48.25,100.653,44.25,96.653,48.25,105.653" style="stroke: #A80036; stroke-width: 1.0;"/><text fill="#000000" font-family="sans-serif" font-size="13" lengthAdjust="spacingAndGlyphs" textLength="77" x="49.25" y="71.0669">Input record</text><!--link getter to validator--><path d="M48.25,156.033 C48.25,183.631 48.25,228.907 48.25,258.587 " fill="none" id="getter-validator" style="stroke: #A80036; stroke-width: 1.0;"/><polygon fill="#A80036" points="48.25,263.94,52.25,254.94,48.25,258.94,44.25,254.94,48.25,263.94" style="stroke: #A80036; stroke-width: 1.0;"/><text fill="#000000" font-family="sans-serif" font-size="13" lengthAdjust="spacingAndGlyphs" textLength="67" x="49.25" y="199.0669">Field value</text><text fill="#000000" font-family="sans-serif" font-size="13" lengthAdjust="spacingAndGlyphs" textLength="66" x="49.75" y="214.1997">from input</text><text fill="#000000" font-family="sans-serif" font-size="13" lengthAdjust="spacingAndGlyphs" textLength="41" x="62.25" y="229.3325">record</text><!--link validator to translator--><path d="M48.25,314.033 C48.25,341.631 48.25,386.907 48.25,416.587 " fill="none" id="validator-translator" style="stroke: #A80036; stroke-width: 1.0;"/><polygon fill="#A80036" points="48.25,421.94,52.25,412.94,48.25,416.94,44.25,412.94,48.25,421.94" style="stroke: #A80036; stroke-width: 1.0;"/><text fill="#000000" font-family="sans-serif" font-size="13" lengthAdjust="spacingAndGlyphs" textLength="67" x="49.25" y="357.0669">Field value</text><text fill="#000000" font-family="sans-serif" font-size="13" lengthAdjust="spacingAndGlyphs" textLength="66" x="49.75" y="372.1997">from input</text><text fill="#000000" font-family="sans-serif" font-size="13" lengthAdjust="spacingAndGlyphs" textLength="41" x="62.25" y="387.3325">record</text><!--link translator to setter--><path d="M48.25,472.088 C48.25,496.568 48.25,534.516 48.25,560.717 " fill="none" id="translator-setter" style="stroke: #A80036; stroke-width: 1.0;"/><polygon fill="#A80036" points="48.25,565.793,52.25,556.793,48.25,560.793,44.25,556.793,48.25,565.793" style="stroke: #A80036; stroke-width: 1.0;"/><text fill="#000000" font-family="sans-serif" font-size="13" lengthAdjust="spacingAndGlyphs" textLength="69" x="49.25" y="515.5669">Result field</text><text fill="#000000" font-family="sans-serif" font-size="13" lengthAdjust="spacingAndGlyphs" textLength="34" x="66.75" y="530.6997">value</text><!--link setter to *end--><path d="M48.25,616.0853 C48.25,638.1589 48.25,670.1177 48.25,688.5025 " fill="none" id="setter-*end" style="stroke: #A80036; stroke-width: 1.0;"/><polygon fill="#A80036" points="48.25,693.7464,52.25,684.7464,48.25,688.7464,44.25,684.7464,48.25,693.7464" style="stroke: #A80036; stroke-width: 1.0;"/><text fill="#000000" font-family="sans-serif" font-size="13" lengthAdjust="spacingAndGlyphs" textLength="89" x="49.25" y="659.0669">Output record</text></g></svg>