<?xml version="1.0" encoding="UTF-8" standalone="no"?><svg xmlns="http://www.w3.org/2000/svg" xmlns:xlink="http://www.w3.org/1999/xlink" contentScriptType="application/ecmascript" contentStyleType="text/css" height="413px" preserveAspectRatio="none" style="width:401px;height:413px;" version="1.1" viewBox="0 0 401 413" width="401px" zoomAndPan="magnify"><defs><filter height="300%" id="f1o9xc0pswj8jk" width="300%" x="-1" y="-1"><feGaussianBlur result="blurOut" stdDeviation="2.0"/><feColorMatrix in="blurOut" result="blurOut2" type="matrix" values="0 0 0 0 0 0 0 0 0 0 0 0 0 0 0 0 0 0 .4 0"/><feOffset dx="4.0" dy="4.0" in="blurOut2" result="blurOut3"/><feBlend in="SourceGraphic" in2="blurOut3" mode="normal"/></filter></defs><g><!--class Event--><rect fill="#FEFECE" filter="url(#f1o9xc0pswj8jk)" height="48" id="Event" style="stroke: #A80036; stroke-width: 1.5;" width="67" x="6" y="354"/><ellipse cx="21" cy="370" fill="#ADD1B2" rx="11" ry="11" style="stroke: #A80036; stroke-width: 1.0;"/><path d="M23.9688,375.6406 Q23.3906,375.9375 22.75,376.0781 Q22.1094,376.2344 21.4063,376.2344 Q18.9063,376.2344 17.5781,374.5938 Q16.2656,372.9375 16.2656,369.8125 Q16.2656,366.6875 17.5781,365.0313 Q18.9063,363.375 21.4063,363.375 Q22.1094,363.375 22.75,363.5313 Q23.4063,363.6875 23.9688,363.9844 L23.9688,366.7031 Q23.3438,366.125 22.75,365.8594 Q22.1563,365.5781 21.5313,365.5781 Q20.1875,365.5781 19.5,366.6563 Q18.8125,367.7188 18.8125,369.8125 Q18.8125,371.9063 19.5,372.9844 Q20.1875,374.0469 21.5313,374.0469 Q22.1563,374.0469 22.75,373.7813 Q23.3438,373.5 23.9688,372.9219 L23.9688,375.6406 Z "/><text fill="#000000" font-family="sans-serif" font-size="12" lengthAdjust="spacingAndGlyphs" textLength="35" x="35" y="374.1543">Event</text><line style="stroke: #A80036; stroke-width: 1.5;" x1="7" x2="72" y1="386" y2="386"/><line style="stroke: #A80036; stroke-width: 1.5;" x1="7" x2="72" y1="394" y2="394"/><!--class Record--><rect fill="#FEFECE" filter="url(#f1o9xc0pswj8jk)" height="48" id="Record" style="stroke: #A80036; stroke-width: 1.5;" width="76" x="151.25" y="244"/><ellipse cx="166.25" cy="260" fill="#ADD1B2" rx="11" ry="11" style="stroke: #A80036; stroke-width: 1.0;"/><path d="M169.2188,265.6406 Q168.6406,265.9375 168,266.0781 Q167.3594,266.2344 166.6563,266.2344 Q164.1563,266.2344 162.8281,264.5938 Q161.5156,262.9375 161.5156,259.8125 Q161.5156,256.6875 162.8281,255.0313 Q164.1563,253.375 166.6563,253.375 Q167.3594,253.375 168,253.5313 Q168.6563,253.6875 169.2188,253.9844 L169.2188,256.7031 Q168.5938,256.125 168,255.8594 Q167.4063,255.5781 166.7813,255.5781 Q165.4375,255.5781 164.75,256.6563 Q164.0625,257.7188 164.0625,259.8125 Q164.0625,261.9063 164.75,262.9844 Q165.4375,264.0469 166.7813,264.0469 Q167.4063,264.0469 168,263.7813 Q168.5938,263.5 169.2188,262.9219 L169.2188,265.6406 Z "/><text fill="#000000" font-family="sans-serif" font-size="12" lengthAdjust="spacingAndGlyphs" textLength="44" x="180.25" y="264.1543">Record</text><line style="stroke: #A80036; stroke-width: 1.5;" x1="152.25" x2="226.25" y1="276" y2="276"/><line style="stroke: #A80036; stroke-width: 1.5;" x1="152.25" x2="226.25" y1="284" y2="284"/><!--class Fault--><rect fill="#FEFECE" filter="url(#f1o9xc0pswj8jk)" height="48" id="Fault" style="stroke: #A80036; stroke-width: 1.5;" width="63" x="108" y="354"/><ellipse cx="123" cy="370" fill="#ADD1B2" rx="11" ry="11" style="stroke: #A80036; stroke-width: 1.0;"/><path d="M125.9688,375.6406 Q125.3906,375.9375 124.75,376.0781 Q124.1094,376.2344 123.4063,376.2344 Q120.9063,376.2344 119.5781,374.5938 Q118.2656,372.9375 118.2656,369.8125 Q118.2656,366.6875 119.5781,365.0313 Q120.9063,363.375 123.4063,363.375 Q124.1094,363.375 124.75,363.5313 Q125.4063,363.6875 125.9688,363.9844 L125.9688,366.7031 Q125.3438,366.125 124.75,365.8594 Q124.1563,365.5781 123.5313,365.5781 Q122.1875,365.5781 121.5,366.6563 Q120.8125,367.7188 120.8125,369.8125 Q120.8125,371.9063 121.5,372.9844 Q122.1875,374.0469 123.5313,374.0469 Q124.1563,374.0469 124.75,373.7813 Q125.3438,373.5 125.9688,372.9219 L125.9688,375.6406 Z "/><text fill="#000000" font-family="sans-serif" font-size="12" lengthAdjust="spacingAndGlyphs" textLength="31" x="137" y="374.1543">Fault</text><line style="stroke: #A80036; stroke-width: 1.5;" x1="109" x2="170" y1="386" y2="386"/><line style="stroke: #A80036; stroke-width: 1.5;" x1="109" x2="170" y1="394" y2="394"/><!--class Alarm--><rect fill="#FEFECE" filter="url(#f1o9xc0pswj8jk)" height="48" id="Alarm" style="stroke: #A80036; stroke-width: 1.5;" width="67" x="206" y="354"/><ellipse cx="221" cy="370" fill="#ADD1B2" rx="11" ry="11" style="stroke: #A80036; stroke-width: 1.0;"/><path d="M223.9688,375.6406 Q223.3906,375.9375 222.75,376.0781 Q222.1094,376.2344 221.4063,376.2344 Q218.9063,376.2344 217.5781,374.5938 Q216.2656,372.9375 216.2656,369.8125 Q216.2656,366.6875 217.5781,365.0313 Q218.9063,363.375 221.4063,363.375 Q222.1094,363.375 222.75,363.5313 Q223.4063,363.6875 223.9688,363.9844 L223.9688,366.7031 Q223.3438,366.125 222.75,365.8594 Q222.1563,365.5781 221.5313,365.5781 Q220.1875,365.5781 219.5,366.6563 Q218.8125,367.7188 218.8125,369.8125 Q218.8125,371.9063 219.5,372.9844 Q220.1875,374.0469 221.5313,374.0469 Q222.1563,374.0469 222.75,373.7813 Q223.3438,373.5 223.9688,372.9219 L223.9688,375.6406 Z "/><text fill="#000000" font-family="sans-serif" font-size="12" lengthAdjust="spacingAndGlyphs" textLength="35" x="235" y="374.1543">Alarm</text><line style="stroke: #A80036; stroke-width: 1.5;" x1="207" x2="272" y1="386" y2="386"/><line style="stroke: #A80036; stroke-width: 1.5;" x1="207" x2="272" y1="394" y2="394"/><!--class Incident--><rect fill="#FEFECE" filter="url(#f1o9xc0pswj8jk)" height="48" id="Incident" style="stroke: #A80036; stroke-width: 1.5;" width="82" x="308.25" y="354"/><ellipse cx="323.25" cy="370" fill="#ADD1B2" rx="11" ry="11" style="stroke: #A80036; stroke-width: 1.0;"/><path d="M326.2188,375.6406 Q325.6406,375.9375 325,376.0781 Q324.3594,376.2344 323.6563,376.2344 Q321.1563,376.2344 319.8281,374.5938 Q318.5156,372.9375 318.5156,369.8125 Q318.5156,366.6875 319.8281,365.0313 Q321.1563,363.375 323.6563,363.375 Q324.3594,363.375 325,363.5313 Q325.6563,363.6875 326.2188,363.9844 L326.2188,366.7031 Q325.5938,366.125 325,365.8594 Q324.4063,365.5781 323.7813,365.5781 Q322.4375,365.5781 321.75,366.6563 Q321.0625,367.7188 321.0625,369.8125 Q321.0625,371.9063 321.75,372.9844 Q322.4375,374.0469 323.7813,374.0469 Q324.4063,374.0469 325,373.7813 Q325.5938,373.5 326.2188,372.9219 L326.2188,375.6406 Z "/><text fill="#000000" font-family="sans-serif" font-size="12" lengthAdjust="spacingAndGlyphs" textLength="50" x="337.25" y="374.1543">Incident</text><line style="stroke: #A80036; stroke-width: 1.5;" x1="309.25" x2="389.25" y1="386" y2="386"/><line style="stroke: #A80036; stroke-width: 1.5;" x1="309.25" x2="389.25" y1="394" y2="394"/><!--class Data packet--><rect fill="#FEFECE" filter="url(#f1o9xc0pswj8jk)" height="48" id="Data packet" style="stroke: #A80036; stroke-width: 1.5;" width="109" x="135" y="118"/><ellipse cx="150" cy="134" fill="#ADD1B2" rx="11" ry="11" style="stroke: #A80036; stroke-width: 1.0;"/><path d="M152.9688,139.6406 Q152.3906,139.9375 151.75,140.0781 Q151.1094,140.2344 150.4063,140.2344 Q147.9063,140.2344 146.5781,138.5938 Q145.2656,136.9375 145.2656,133.8125 Q145.2656,130.6875 146.5781,129.0313 Q147.9063,127.375 150.4063,127.375 Q151.1094,127.375 151.75,127.5313 Q152.4063,127.6875 152.9688,127.9844 L152.9688,130.7031 Q152.3438,130.125 151.75,129.8594 Q151.1563,129.5781 150.5313,129.5781 Q149.1875,129.5781 148.5,130.6563 Q147.8125,131.7188 147.8125,133.8125 Q147.8125,135.9063 148.5,136.9844 Q149.1875,138.0469 150.5313,138.0469 Q151.1563,138.0469 151.75,137.7813 Q152.3438,137.5 152.9688,136.9219 L152.9688,139.6406 Z "/><text fill="#000000" font-family="sans-serif" font-size="12" lengthAdjust="spacingAndGlyphs" textLength="77" x="164" y="138.1543">Data packet</text><line style="stroke: #A80036; stroke-width: 1.5;" x1="136" x2="243" y1="150" y2="150"/><line style="stroke: #A80036; stroke-width: 1.5;" x1="136" x2="243" y1="158" y2="158"/><!--class Input data packet--><rect fill="#FEFECE" filter="url(#f1o9xc0pswj8jk)" height="48" id="Input data packet" style="stroke: #A80036; stroke-width: 1.5;" width="144" x="25.25" y="8"/><ellipse cx="40.25" cy="24" fill="#ADD1B2" rx="11" ry="11" style="stroke: #A80036; stroke-width: 1.0;"/><path d="M43.2188,29.6406 Q42.6406,29.9375 42,30.0781 Q41.3594,30.2344 40.6563,30.2344 Q38.1563,30.2344 36.8281,28.5938 Q35.5156,26.9375 35.5156,23.8125 Q35.5156,20.6875 36.8281,19.0313 Q38.1563,17.375 40.6563,17.375 Q41.3594,17.375 42,17.5313 Q42.6563,17.6875 43.2188,17.9844 L43.2188,20.7031 Q42.5938,20.125 42,19.8594 Q41.4063,19.5781 40.7813,19.5781 Q39.4375,19.5781 38.75,20.6563 Q38.0625,21.7188 38.0625,23.8125 Q38.0625,25.9063 38.75,26.9844 Q39.4375,28.0469 40.7813,28.0469 Q41.4063,28.0469 42,27.7813 Q42.5938,27.5 43.2188,26.9219 L43.2188,29.6406 Z "/><text fill="#000000" font-family="sans-serif" font-size="12" lengthAdjust="spacingAndGlyphs" textLength="112" x="54.25" y="28.1543">Input data packet</text><line style="stroke: #A80036; stroke-width: 1.5;" x1="26.25" x2="168.25" y1="40" y2="40"/><line style="stroke: #A80036; stroke-width: 1.5;" x1="26.25" x2="168.25" y1="48" y2="48"/><!--class Output data packet--><rect fill="#FEFECE" filter="url(#f1o9xc0pswj8jk)" height="48" id="Output data packet" style="stroke: #A80036; stroke-width: 1.5;" width="155" x="205" y="8"/><ellipse cx="220" cy="24" fill="#ADD1B2" rx="11" ry="11" style="stroke: #A80036; stroke-width: 1.0;"/><path d="M222.9688,29.6406 Q222.3906,29.9375 221.75,30.0781 Q221.1094,30.2344 220.4063,30.2344 Q217.9063,30.2344 216.5781,28.5938 Q215.2656,26.9375 215.2656,23.8125 Q215.2656,20.6875 216.5781,19.0313 Q217.9063,17.375 220.4063,17.375 Q221.1094,17.375 221.75,17.5313 Q222.4063,17.6875 222.9688,17.9844 L222.9688,20.7031 Q222.3438,20.125 221.75,19.8594 Q221.1563,19.5781 220.5313,19.5781 Q219.1875,19.5781 218.5,20.6563 Q217.8125,21.7188 217.8125,23.8125 Q217.8125,25.9063 218.5,26.9844 Q219.1875,28.0469 220.5313,28.0469 Q221.1563,28.0469 221.75,27.7813 Q222.3438,27.5 222.9688,26.9219 L222.9688,29.6406 Z "/><text fill="#000000" font-family="sans-serif" font-size="12" lengthAdjust="spacingAndGlyphs" textLength="123" x="234" y="28.1543">Output data packet</text><line style="stroke: #A80036; stroke-width: 1.5;" x1="206" x2="359" y1="40" y2="40"/><line style="stroke: #A80036; stroke-width: 1.5;" x1="206" x2="359" y1="48" y2="48"/><!--link Record to Event--><path d="M140.602,304.0266 C117.911,320.3643 91.5324,339.3566 71.3755,353.8696 " fill="none" id="Record-Event" style="stroke: #A80036; stroke-width: 1.0;"/><polygon fill="none" points="136.75,298.174,157.071,292.169,144.931,309.5356,136.75,298.174" style="stroke: #A80036; stroke-width: 1.0;"/><!--link Record to Fault--><path d="M170.089,310.388 C163.263,325.1328 155.821,341.2063 149.959,353.8696 " fill="none" id="Record-Fault" style="stroke: #A80036; stroke-width: 1.0;"/><polygon fill="none" points="163.769,307.3772,178.524,292.169,176.473,313.2589,163.769,307.3772" style="stroke: #A80036; stroke-width: 1.0;"/><!--link Record to Alarm--><path d="M208.411,310.388 C215.237,325.1328 222.679,341.2063 228.541,353.8696 " fill="none" id="Record-Alarm" style="stroke: #A80036; stroke-width: 1.0;"/><polygon fill="none" points="202.027,313.2589,199.976,292.169,214.731,307.3772,202.027,313.2589" style="stroke: #A80036; stroke-width: 1.0;"/><!--link Record to Incident--><path d="M240.431,303.5469 C264.793,319.9915 293.271,339.2144 314.983,353.8696 " fill="none" id="Record-Incident" style="stroke: #A80036; stroke-width: 1.0;"/><polygon fill="none" points="236.235,309.1602,223.574,292.169,244.067,297.556,236.235,309.1602" style="stroke: #A80036; stroke-width: 1.0;"/><!--link Data packet to Record--><path d="M189.25,179.212 C189.25,200.01 189.25,225.52 189.25,243.67 " fill="none" id="Data packet-Record" style="stroke: #A80036; stroke-width: 1.0;"/><polygon fill="#FFFFFF" points="189.25,166.033,185.25,172.033,189.25,178.033,193.25,172.033,189.25,166.033" style="stroke: #A80036; stroke-width: 1.0;"/><text fill="#000000" font-family="sans-serif" font-size="13" lengthAdjust="spacingAndGlyphs" textLength="54" x="190.25" y="209.0669">contains</text><text fill="#000000" font-family="sans-serif" font-size="13" lengthAdjust="spacingAndGlyphs" textLength="23" x="162.6719" y="232.9794">0..*</text><!--link Input data packet to Data packet--><path d="M116.986,56.169 C128.507,69.693 143.333,87.098 156.555,102.619 " fill="none" id="Input data packet-Data packet" style="stroke: #A80036; stroke-width: 1.0;"/><polygon fill="none" points="161.906,98.105,169.546,117.87,151.248,107.184,161.906,98.105" style="stroke: #A80036; stroke-width: 1.0;"/><!--link Output data packet to Data packet--><path d="M262.299,56.169 C250.653,69.693 235.666,87.098 222.301,102.619 " fill="none" id="Output data packet-Data packet" style="stroke: #A80036; stroke-width: 1.0;"/><polygon fill="none" points="227.523,107.282,209.168,117.87,216.914,98.147,227.523,107.282" style="stroke: #A80036; stroke-width: 1.0;"/></g></svg>