<?xml version="1.0" encoding="UTF-8" standalone="no"?><svg xmlns="http://www.w3.org/2000/svg" xmlns:xlink="http://www.w3.org/1999/xlink" contentScriptType="application/ecmascript" contentStyleType="text/css" height="717px" preserveAspectRatio="none" style="width:615px;height:717px;" version="1.1" viewBox="0 0 615 717" width="615px" zoomAndPan="magnify"><defs><filter height="300%" id="f1ev6w1e9q8097" width="300%" x="-1" y="-1"><feGaussianBlur result="blurOut" stdDeviation="2.0"/><feColorMatrix in="blurOut" result="blurOut2" type="matrix" values="0 0 0 0 0 0 0 0 0 0 0 0 0 0 0 0 0 0 .4 0"/><feOffset dx="4.0" dy="4.0" in="blurOut2" result="blurOut3"/><feBlend in="SourceGraphic" in2="blurOut3" mode="normal"/></filter></defs><g><ellipse cx="131" cy="18" fill="#000000" filter="url(#f1ev6w1e9q8097)" rx="10" ry="10" style="stroke: none; stroke-width: 1.0;"/><rect fill="#FEFECE" filter="url(#f1ev6w1e9q8097)" height="33.9688" rx="12.5" ry="12.5" style="stroke: #A80036; stroke-width: 1.5;" width="60" x="101" y="70"/><text fill="#000000" font-family="sans-serif" font-size="12" lengthAdjust="spacingAndGlyphs" textLength="40" x="111" y="91.1387">Getter</text><rect fill="#FEFECE" filter="url(#f1ev6w1e9q8097)" height="33.9688" rx="12.5" ry="12.5" style="stroke: #A80036; stroke-width: 1.5;" width="76" x="288" y="160"/><text fill="#000000" font-family="sans-serif" font-size="12" lengthAdjust="spacingAndGlyphs" textLength="56" x="298" y="181.1387">Validator</text><rect fill="#FEFECE" filter="url(#f1ev6w1e9q8097)" height="33.9688" rx="12.5" ry="12.5" style="stroke: #A80036; stroke-width: 1.5;" width="78" x="147" y="430"/><text fill="#000000" font-family="sans-serif" font-size="12" lengthAdjust="spacingAndGlyphs" textLength="58" x="157" y="451.1387">Defaulter</text><rect fill="#FEFECE" filter="url(#f1ev6w1e9q8097)" height="33.9688" rx="12.5" ry="12.5" style="stroke: #A80036; stroke-width: 1.5;" width="71" x="204.75" y="340"/><text fill="#000000" font-family="sans-serif" font-size="12" lengthAdjust="spacingAndGlyphs" textLength="51" x="214.75" y="361.1387">Warning</text><rect fill="#FEFECE" filter="url(#f1ev6w1e9q8097)" height="33.9688" rx="12.5" ry="12.5" style="stroke: #A80036; stroke-width: 1.5;" width="84" x="395" y="250"/><text fill="#000000" font-family="sans-serif" font-size="12" lengthAdjust="spacingAndGlyphs" textLength="64" x="405" y="271.1387">Translator</text><rect fill="#FEFECE" filter="url(#f1ev6w1e9q8097)" height="33.9688" rx="12.5" ry="12.5" style="stroke: #A80036; stroke-width: 1.5;" width="59" x="415.75" y="520"/><text fill="#000000" font-family="sans-serif" font-size="12" lengthAdjust="spacingAndGlyphs" textLength="39" x="425.75" y="541.1387">Setter</text><rect fill="#FEFECE" filter="url(#f1ev6w1e9q8097)" height="33.9688" rx="12.5" ry="12.5" style="stroke: #A80036; stroke-width: 1.5;" width="87" x="162.75" y="610"/><text fill="#000000" font-family="sans-serif" font-size="12" lengthAdjust="spacingAndGlyphs" textLength="67" x="172.75" y="631.1387">Code error</text><rect fill="#FEFECE" filter="url(#f1ev6w1e9q8097)" height="33.9688" rx="12.5" ry="12.5" style="stroke: #A80036; stroke-width: 1.5;" width="44" x="349" y="610"/><text fill="#000000" font-family="sans-serif" font-size="12" lengthAdjust="spacingAndGlyphs" textLength="24" x="359" y="631.1387">End</text><ellipse cx="318" cy="696" fill="none" filter="url(#f1ev6w1e9q8097)" rx="10" ry="10" style="stroke: #000000; stroke-width: 1.0;"/><ellipse cx="318.5" cy="696.5" fill="#000000" rx="6" ry="6" style="stroke: none; stroke-width: 1.0;"/><!--link start to Getter--><path d="M131,28.036 C131,37.412 131,52.41 131,64.801 " fill="none" id="start-Getter" style="stroke: #A80036; stroke-width: 1.0;"/><polygon fill="#A80036" points="131,69.928,135,60.928,131,64.928,127,60.928,131,69.928" style="stroke: #A80036; stroke-width: 1.0;"/><!--link Getter to Validator--><path d="M161.041,101.557 C194.373,116.599 248.335,140.951 285.408,157.682 " fill="none" id="Getter-Validator" style="stroke: #A80036; stroke-width: 1.0;"/><polygon fill="#A80036" points="290.296,159.887,283.7369,152.54,285.7383,157.831,280.4473,159.8324,290.296,159.887" style="stroke: #A80036; stroke-width: 1.0;"/><text fill="#000000" font-family="sans-serif" font-size="11" lengthAdjust="spacingAndGlyphs" textLength="57" x="247" y="135.7104">onNonNull</text><!--link Getter to Defaulter--><path d="M100.741,95.088 C63.7469,105.763 6,129.821 6,176 C6,176 6,176 6,358 C6,418.319 88.589,437.298 141.881,443.267 " fill="none" id="Getter-Defaulter" style="stroke: #A80036; stroke-width: 1.0;"/><polygon fill="#A80036" points="146.943,443.804,138.4163,438.8749,141.971,443.2754,137.5705,446.83,146.943,443.804" style="stroke: #A80036; stroke-width: 1.0;"/><text fill="#000000" font-family="sans-serif" font-size="11" lengthAdjust="spacingAndGlyphs" textLength="35" x="7" y="270.7104">onNull</text><!--link Getter to Defaulter--><path d="M116.129,104.153 C102.3594,120.841 84,148.288 84,176 C84,176 84,176 84,358 C84,390.721 114.465,413.961 142.095,428.309 " fill="none" id="Getter-Defaulter-1" style="stroke: #A80036; stroke-width: 1.0;"/><polygon fill="#A80036" points="146.856,430.71,140.6232,423.0842,142.3922,428.4574,137.019,430.2263,146.856,430.71" style="stroke: #A80036; stroke-width: 1.0;"/><text fill="#000000" font-family="sans-serif" font-size="11" lengthAdjust="spacingAndGlyphs" textLength="71" x="85" y="270.7104">onUndefined</text><!--link Getter to Warning--><path d="M137.654,104.361 C156.55,150.821 210.52,283.518 231.507,335.118 " fill="none" id="Getter-Warning" style="stroke: #A80036; stroke-width: 1.0;"/><polygon fill="#A80036" points="233.433,339.853,233.7464,330.0091,231.5487,335.2216,226.3362,333.0239,233.433,339.853" style="stroke: #A80036; stroke-width: 1.0;"/><text fill="#000000" font-family="sans-serif" font-size="11" lengthAdjust="spacingAndGlyphs" textLength="43" x="190" y="225.7104">onError</text><!--link Validator to Translator--><path d="M334.273,194.208 C340.636,205.406 350.306,220.022 362,230 C370.385,237.154 380.435,243.242 390.413,248.264 " fill="none" id="Validator-Translator" style="stroke: #A80036; stroke-width: 1.0;"/><polygon fill="#A80036" points="394.986,250.496,388.6524,242.9537,390.4926,248.3029,385.1435,250.1431,394.986,250.496" style="stroke: #A80036; stroke-width: 1.0;"/><text fill="#000000" font-family="sans-serif" font-size="11" lengthAdjust="spacingAndGlyphs" textLength="57" x="363" y="225.7104">onNonNull</text><!--link Validator to Translator--><path d="M364.322,183.598 C384.392,188.435 407.873,197.407 423,214 C430.509,222.237 434.061,234.08 435.712,244.383 " fill="none" id="Validator-Translator-1" style="stroke: #A80036; stroke-width: 1.0;"/><polygon fill="#A80036" points="436.413,249.604,439.1792,240.1516,435.7473,244.6485,431.2504,241.2167,436.413,249.604" style="stroke: #A80036; stroke-width: 1.0;"/><text fill="#000000" font-family="sans-serif" font-size="11" lengthAdjust="spacingAndGlyphs" textLength="71" x="433" y="225.7104">onUndefined</text><!--link Validator to Warning--><path d="M322.297,194.028 C317.029,215.308 306.287,253.726 291,284 C281.614,302.588 267.816,321.737 256.938,335.61 " fill="none" id="Validator-Warning" style="stroke: #A80036; stroke-width: 1.0;"/><polygon fill="#A80036" points="253.663,339.739,262.3899,335.1737,256.7702,335.8217,256.1222,330.2021,253.663,339.739" style="stroke: #A80036; stroke-width: 1.0;"/><text fill="#000000" font-family="sans-serif" font-size="11" lengthAdjust="spacingAndGlyphs" textLength="35" x="307" y="270.7104">onNull</text><!--link Validator to Warning--><path d="M295.706,194.003 C275.822,206.357 251.452,225.476 240,250 C227.385,277.014 230.737,312.29 234.899,334.551 " fill="none" id="Validator-Warning-1" style="stroke: #A80036; stroke-width: 1.0;"/><polygon fill="#A80036" points="235.907,339.643,238.082,330.0373,234.9355,334.7383,230.2345,331.5917,235.907,339.643" style="stroke: #A80036; stroke-width: 1.0;"/><text fill="#000000" font-family="sans-serif" font-size="11" lengthAdjust="spacingAndGlyphs" textLength="43" x="241" y="270.7104">onError</text><!--link Translator to Setter--><path d="M433.683,284.177 C428.694,310.526 420.223,364.358 424,410 C427.074,447.14 435.161,489.814 440.355,514.753 " fill="none" id="Translator-Setter" style="stroke: #A80036; stroke-width: 1.0;"/><polygon fill="#A80036" points="441.417,519.797,443.4772,510.166,440.387,514.9042,435.6488,511.814,441.417,519.797" style="stroke: #A80036; stroke-width: 1.0;"/><text fill="#000000" font-family="sans-serif" font-size="11" lengthAdjust="spacingAndGlyphs" textLength="57" x="425" y="405.7104">onNonNull</text><!--link Translator to Setter--><path d="M445.357,284.156 C456.97,307.608 477.416,352.791 485,394 C493.063,437.814 471.703,487.643 457.181,515.087 " fill="none" id="Translator-Setter-1" style="stroke: #A80036; stroke-width: 1.0;"/><polygon fill="#A80036" points="454.736,519.62,462.5301,513.5991,457.1104,515.2198,455.4898,509.8,454.736,519.62" style="stroke: #A80036; stroke-width: 1.0;"/><text fill="#000000" font-family="sans-serif" font-size="11" lengthAdjust="spacingAndGlyphs" textLength="35" x="487" y="405.7104">onNull</text><!--link Translator to Setter--><path d="M454.947,284.156 C477.884,306.246 516.162,348.372 529,394 C542.513,442.026 498.752,490.435 469.398,516.474 " fill="none" id="Translator-Setter-2" style="stroke: #A80036; stroke-width: 1.0;"/><polygon fill="#A80036" points="465.538,519.843,474.948,516.9359,469.3041,516.5541,469.6858,510.9102,465.538,519.843" style="stroke: #A80036; stroke-width: 1.0;"/><text fill="#000000" font-family="sans-serif" font-size="11" lengthAdjust="spacingAndGlyphs" textLength="71" x="532" y="405.7104">onUndefined</text><!--link Translator to Warning--><path d="M400.993,284.027 C388.456,289.936 374.425,296.923 362,304 C350.861,310.345 349.43,314.194 338,320 C319.684,329.305 298.376,337.427 280.316,343.59 " fill="none" id="Translator-Warning" style="stroke: #A80036; stroke-width: 1.0;"/><polygon fill="#A80036" points="275.313,345.276,285.119,346.1937,280.0514,343.6799,282.5652,338.6122,275.313,345.276" style="stroke: #A80036; stroke-width: 1.0;"/><text fill="#000000" font-family="sans-serif" font-size="11" lengthAdjust="spacingAndGlyphs" textLength="43" x="363" y="315.7104">onError</text><!--link Defaulter to Setter--><path d="M225.055,461.27 C275.606,478.445 362.882,508.099 410.891,524.411 " fill="none" id="Defaulter-Setter" style="stroke: #A80036; stroke-width: 1.0;"/><polygon fill="#A80036" points="415.696,526.043,408.4613,519.3603,410.9618,524.4345,405.8876,526.935,415.696,526.043" style="stroke: #A80036; stroke-width: 1.0;"/><text fill="#000000" font-family="sans-serif" font-size="11" lengthAdjust="spacingAndGlyphs" textLength="57" x="340" y="495.7104">onNonNull</text><!--link Defaulter to Code error--><path d="M187.81,464.11 C191.43,496.329 199.562,568.699 203.613,604.751 " fill="none" id="Defaulter-Code error" style="stroke: #A80036; stroke-width: 1.0;"/><polygon fill="#A80036" points="204.18,609.7979,207.1495,600.4074,203.6214,604.8292,199.1996,601.3011,204.18,609.7979" style="stroke: #A80036; stroke-width: 1.0;"/><text fill="#000000" font-family="sans-serif" font-size="11" lengthAdjust="spacingAndGlyphs" textLength="35" x="199" y="540.7104">onNull</text><!--link Defaulter to Code error--><path d="M171.86,464.078 C155.453,484.774 132.082,521.896 144,554 C151.609,574.497 167.958,593.069 181.957,606.2157 " fill="none" id="Defaulter-Code error-1" style="stroke: #A80036; stroke-width: 1.0;"/><polygon fill="#A80036" points="185.834,609.7769,181.9129,600.7422,182.1521,606.394,176.5003,606.6332,185.834,609.7769" style="stroke: #A80036; stroke-width: 1.0;"/><text fill="#000000" font-family="sans-serif" font-size="11" lengthAdjust="spacingAndGlyphs" textLength="43" x="145" y="540.7104">onError</text><!--link Defaulter to End--><path d="M199.091,464.131 C210.454,478.433 227.066,500.081 240,520 C259.395,549.869 252.172,566.577 279,590 C297.462,606.1184 323.977,615.4591 343.803,620.5666 " fill="none" id="Defaulter-End" style="stroke: #A80036; stroke-width: 1.0;"/><polygon fill="#A80036" points="348.69,621.7754,340.9147,615.7301,343.8365,620.5741,338.9926,623.4958,348.69,621.7754" style="stroke: #A80036; stroke-width: 1.0;"/><text fill="#000000" font-family="sans-serif" font-size="11" lengthAdjust="spacingAndGlyphs" textLength="71" x="257" y="540.7104">onUndefined</text><!--link Setter to End--><path d="M415.65,544.253 C399.488,549.356 380.774,558.375 371,574 C365.374,582.994 364.913,594.688 366.061,604.709 " fill="none" id="Setter-End" style="stroke: #A80036; stroke-width: 1.0;"/><polygon fill="#A80036" points="366.789,609.7728,369.4676,600.2952,366.0775,604.8237,361.549,601.4336,366.789,609.7728" style="stroke: #A80036; stroke-width: 1.0;"/><text fill="#000000" font-family="sans-serif" font-size="11" lengthAdjust="spacingAndGlyphs" textLength="57" x="372" y="585.7104">onNonNull</text><!--link Setter to End--><path d="M444.157,554.4 C442.86,565.403 439.683,579.71 432,590 C423.427,601.483 410.019,609.971 397.955,615.8117 " fill="none" id="Setter-End-1" style="stroke: #A80036; stroke-width: 1.0;"/><polygon fill="#A80036" points="393.236,617.9985,403.0837,617.8452,397.7729,615.8969,399.7211,610.5861,393.236,617.9985" style="stroke: #A80036; stroke-width: 1.0;"/><text fill="#000000" font-family="sans-serif" font-size="11" lengthAdjust="spacingAndGlyphs" textLength="35" x="441" y="585.7104">onNull</text><!--link Setter to End--><path d="M468.954,554.155 C481.161,564.417 491.76,577.983 483,590 C463.713,616.4589 424.66,623.897 398.161,625.7609 " fill="none" id="Setter-End-2" style="stroke: #A80036; stroke-width: 1.0;"/><polygon fill="#A80036" points="393.038,626.0633,402.2578,629.5266,398.0293,625.769,401.787,621.5405,393.038,626.0633" style="stroke: #A80036; stroke-width: 1.0;"/><text fill="#000000" font-family="sans-serif" font-size="11" lengthAdjust="spacingAndGlyphs" textLength="71" x="487" y="585.7104">onUndefined</text><!--link Setter to Code error--><path d="M415.622,544.578 C388.965,550.912 348.783,561.375 315,574 C289.437,583.553 261.692,596.834 240.591,607.5824 " fill="none" id="Setter-Code error" style="stroke: #A80036; stroke-width: 1.0;"/><polygon fill="#A80036" points="235.922,609.975,245.7558,609.4309,240.3719,607.695,242.1078,602.3111,235.922,609.975" style="stroke: #A80036; stroke-width: 1.0;"/><text fill="#000000" font-family="sans-serif" font-size="11" lengthAdjust="spacingAndGlyphs" textLength="43" x="316" y="585.7104">onError</text><!--link Code error to end--><path d="M232.827,644.0482 C255.778,657.7782 287.801,676.9345 305.315,687.4118 " fill="none" id="Code error-end" style="stroke: #A80036; stroke-width: 1.0;"/><polygon fill="#A80036" points="309.851,690.125,304.1794,682.0731,305.5597,687.559,300.0738,688.9393,309.851,690.125" style="stroke: #A80036; stroke-width: 1.0;"/><!--link Warning to Defaulter--><path d="M230.096,374.141 C221.266,388.53 208.292,409.673 198.701,425.302 " fill="none" id="Warning-Defaulter" style="stroke: #A80036; stroke-width: 1.0;"/><polygon fill="#A80036" points="195.842,429.962,203.9578,424.3822,198.4566,425.7001,197.1387,420.1989,195.842,429.962" style="stroke: #A80036; stroke-width: 1.0;"/><text fill="#000000" font-family="sans-serif" font-size="11" lengthAdjust="spacingAndGlyphs" textLength="39" x="219" y="405.7104">always</text><!--link End to end--><path d="M358.17,644.2188 C348.542,656.3904 335.598,672.7531 327.037,683.5756 " fill="none" id="End-end" style="stroke: #A80036; stroke-width: 1.0;"/><polygon fill="#A80036" points="323.878,687.5698,332.5987,682.9928,326.98,683.6484,326.3245,678.0296,323.878,687.5698" style="stroke: #A80036; stroke-width: 1.0;"/></g></svg>