<?xml version="1.0" encoding="UTF-8" standalone="no"?><svg xmlns="http://www.w3.org/2000/svg" xmlns:xlink="http://www.w3.org/1999/xlink" contentScriptType="application/ecmascript" contentStyleType="text/css" height="557px" preserveAspectRatio="none" style="width:423px;height:557px;" version="1.1" viewBox="0 0 423 557" width="423px" zoomAndPan="magnify"><defs><filter height="300%" id="f3anpnic8ltjb" width="300%" x="-1" y="-1"><feGaussianBlur result="blurOut" stdDeviation="2.0"/><feColorMatrix in="blurOut" result="blurOut2" type="matrix" values="0 0 0 0 0 0 0 0 0 0 0 0 0 0 0 0 0 0 .4 0"/><feOffset dx="4.0" dy="4.0" in="blurOut2" result="blurOut3"/><feBlend in="SourceGraphic" in2="blurOut3" mode="normal"/></filter></defs><g><!--class Transformer--><rect fill="#FEFECE" filter="url(#f3anpnic8ltjb)" height="48" id="Transformer" style="stroke: #A80036; stroke-width: 1.5;" width="108" x="280.25" y="8"/><ellipse cx="295.25" cy="24" fill="#ADD1B2" rx="11" ry="11" style="stroke: #A80036; stroke-width: 1.0;"/><path d="M298.2188,29.6406 Q297.6406,29.9375 297,30.0781 Q296.3594,30.2344 295.6563,30.2344 Q293.1563,30.2344 291.8281,28.5938 Q290.5156,26.9375 290.5156,23.8125 Q290.5156,20.6875 291.8281,19.0313 Q293.1563,17.375 295.6563,17.375 Q296.3594,17.375 297,17.5313 Q297.6563,17.6875 298.2188,17.9844 L298.2188,20.7031 Q297.5938,20.125 297,19.8594 Q296.4063,19.5781 295.7813,19.5781 Q294.4375,19.5781 293.75,20.6563 Q293.0625,21.7188 293.0625,23.8125 Q293.0625,25.9063 293.75,26.9844 Q294.4375,28.0469 295.7813,28.0469 Q296.4063,28.0469 297,27.7813 Q297.5938,27.5 298.2188,26.9219 L298.2188,29.6406 Z "/><text fill="#000000" font-family="sans-serif" font-size="12" lengthAdjust="spacingAndGlyphs" textLength="76" x="309.25" y="28.1543">Transformer</text><line style="stroke: #A80036; stroke-width: 1.5;" x1="281.25" x2="387.25" y1="40" y2="40"/><line style="stroke: #A80036; stroke-width: 1.5;" x1="281.25" x2="387.25" y1="48" y2="48"/><!--class State machine--><rect fill="#FEFECE" filter="url(#f3anpnic8ltjb)" height="48" id="State machine" style="stroke: #A80036; stroke-width: 1.5;" width="123" x="176" y="118"/><ellipse cx="191" cy="134" fill="#ADD1B2" rx="11" ry="11" style="stroke: #A80036; stroke-width: 1.0;"/><path d="M193.9688,139.6406 Q193.3906,139.9375 192.75,140.0781 Q192.1094,140.2344 191.4063,140.2344 Q188.9063,140.2344 187.5781,138.5938 Q186.2656,136.9375 186.2656,133.8125 Q186.2656,130.6875 187.5781,129.0313 Q188.9063,127.375 191.4063,127.375 Q192.1094,127.375 192.75,127.5313 Q193.4063,127.6875 193.9688,127.9844 L193.9688,130.7031 Q193.3438,130.125 192.75,129.8594 Q192.1563,129.5781 191.5313,129.5781 Q190.1875,129.5781 189.5,130.6563 Q188.8125,131.7188 188.8125,133.8125 Q188.8125,135.9063 189.5,136.9844 Q190.1875,138.0469 191.5313,138.0469 Q192.1563,138.0469 192.75,137.7813 Q193.3438,137.5 193.9688,136.9219 L193.9688,139.6406 Z "/><text fill="#000000" font-family="sans-serif" font-size="12" lengthAdjust="spacingAndGlyphs" textLength="91" x="205" y="138.1543">State machine</text><line style="stroke: #A80036; stroke-width: 1.5;" x1="177" x2="298" y1="150" y2="150"/><line style="stroke: #A80036; stroke-width: 1.5;" x1="177" x2="298" y1="158" y2="158"/><!--class State--><rect fill="#FEFECE" filter="url(#f3anpnic8ltjb)" height="112.0234" id="State" style="stroke: #A80036; stroke-width: 1.5;" width="117" x="95" y="244"/><ellipse cx="132.95" cy="260" fill="#ADD1B2" rx="11" ry="11" style="stroke: #A80036; stroke-width: 1.0;"/><path d="M135.9188,265.6406 Q135.3406,265.9375 134.7,266.0781 Q134.0594,266.2344 133.3563,266.2344 Q130.8563,266.2344 129.5281,264.5938 Q128.2156,262.9375 128.2156,259.8125 Q128.2156,256.6875 129.5281,255.0313 Q130.8563,253.375 133.3563,253.375 Q134.0594,253.375 134.7,253.5313 Q135.3563,253.6875 135.9188,253.9844 L135.9188,256.7031 Q135.2938,256.125 134.7,255.8594 Q134.1063,255.5781 133.4813,255.5781 Q132.1375,255.5781 131.45,256.6563 Q130.7625,257.7188 130.7625,259.8125 Q130.7625,261.9063 131.45,262.9844 Q132.1375,264.0469 133.4813,264.0469 Q134.1063,264.0469 134.7,263.7813 Q135.2938,263.5 135.9188,262.9219 L135.9188,265.6406 Z "/><text fill="#000000" font-family="sans-serif" font-size="12" lengthAdjust="spacingAndGlyphs" textLength="34" x="152.05" y="264.1543">State</text><line style="stroke: #A80036; stroke-width: 1.5;" x1="96" x2="211" y1="276" y2="276"/><text fill="#000000" font-family="sans-serif" font-size="11" lengthAdjust="spacingAndGlyphs" textLength="77" x="101" y="290.2104">State onError</text><text fill="#000000" font-family="sans-serif" font-size="11" lengthAdjust="spacingAndGlyphs" textLength="69" x="101" y="303.0151">State onNull</text><text fill="#000000" font-family="sans-serif" font-size="11" lengthAdjust="spacingAndGlyphs" textLength="91" x="101" y="315.8198">State onNonNull</text><text fill="#000000" font-family="sans-serif" font-size="11" lengthAdjust="spacingAndGlyphs" textLength="105" x="101" y="328.6245">State onUndefined</text><line style="stroke: #A80036; stroke-width: 1.5;" x1="96" x2="211" y1="335.2188" y2="335.2188"/><text fill="#000000" font-family="sans-serif" font-size="11" lengthAdjust="spacingAndGlyphs" textLength="81" x="101" y="349.4292">action(Contex)</text><!--class Context--><rect fill="#FEFECE" filter="url(#f3anpnic8ltjb)" height="112.0234" id="Context" style="stroke: #A80036; stroke-width: 1.5;" width="176" x="227.25" y="434"/><ellipse cx="287" cy="450" fill="#ADD1B2" rx="11" ry="11" style="stroke: #A80036; stroke-width: 1.0;"/><path d="M289.9688,455.6406 Q289.3906,455.9375 288.75,456.0781 Q288.1094,456.2344 287.4063,456.2344 Q284.9063,456.2344 283.5781,454.5938 Q282.2656,452.9375 282.2656,449.8125 Q282.2656,446.6875 283.5781,445.0313 Q284.9063,443.375 287.4063,443.375 Q288.1094,443.375 288.75,443.5313 Q289.4063,443.6875 289.9688,443.9844 L289.9688,446.7031 Q289.3438,446.125 288.75,445.8594 Q288.1563,445.5781 287.5313,445.5781 Q286.1875,445.5781 285.5,446.6563 Q284.8125,447.7188 284.8125,449.8125 Q284.8125,451.9063 285.5,452.9844 Q286.1875,454.0469 287.5313,454.0469 Q288.1563,454.0469 288.75,453.7813 Q289.3438,453.5 289.9688,452.9219 L289.9688,455.6406 Z "/><text fill="#000000" font-family="sans-serif" font-size="12" lengthAdjust="spacingAndGlyphs" textLength="48" x="307.5" y="454.1543">Context</text><line style="stroke: #A80036; stroke-width: 1.5;" x1="228.25" x2="402.25" y1="466" y2="466"/><text fill="#000000" font-family="sans-serif" font-size="11" lengthAdjust="spacingAndGlyphs" textLength="69" x="233.25" y="480.2104">Input record</text><text fill="#000000" font-family="sans-serif" font-size="11" lengthAdjust="spacingAndGlyphs" textLength="117" x="233.25" y="493.0151">Partial output record</text><text fill="#000000" font-family="sans-serif" font-size="11" lengthAdjust="spacingAndGlyphs" textLength="105" x="233.25" y="505.8198">Current field value</text><text fill="#000000" font-family="sans-serif" font-size="11" lengthAdjust="spacingAndGlyphs" textLength="151" x="233.25" y="518.6245">Current encountered error</text><text fill="#000000" font-family="sans-serif" font-size="11" lengthAdjust="spacingAndGlyphs" textLength="164" x="233.25" y="531.4292">Additional global parameters</text><line style="stroke: #A80036; stroke-width: 1.5;" x1="228.25" x2="402.25" y1="538.0234" y2="538.0234"/><!--class Mapping table--><rect fill="#FEFECE" filter="url(#f3anpnic8ltjb)" height="48" id="Mapping table" style="stroke: #A80036; stroke-width: 1.5;" width="121" x="6" y="466"/><ellipse cx="21" cy="482" fill="#ADD1B2" rx="11" ry="11" style="stroke: #A80036; stroke-width: 1.0;"/><path d="M23.9688,487.6406 Q23.3906,487.9375 22.75,488.0781 Q22.1094,488.2344 21.4063,488.2344 Q18.9063,488.2344 17.5781,486.5938 Q16.2656,484.9375 16.2656,481.8125 Q16.2656,478.6875 17.5781,477.0313 Q18.9063,475.375 21.4063,475.375 Q22.1094,475.375 22.75,475.5313 Q23.4063,475.6875 23.9688,475.9844 L23.9688,478.7031 Q23.3438,478.125 22.75,477.8594 Q22.1563,477.5781 21.5313,477.5781 Q20.1875,477.5781 19.5,478.6563 Q18.8125,479.7188 18.8125,481.8125 Q18.8125,483.9063 19.5,484.9844 Q20.1875,486.0469 21.5313,486.0469 Q22.1563,486.0469 22.75,485.7813 Q23.3438,485.5 23.9688,484.9219 L23.9688,487.6406 Z "/><text fill="#000000" font-family="sans-serif" font-size="12" lengthAdjust="spacingAndGlyphs" textLength="89" x="35" y="486.1543">Mapping table</text><line style="stroke: #A80036; stroke-width: 1.5;" x1="7" x2="126" y1="498" y2="498"/><line style="stroke: #A80036; stroke-width: 1.5;" x1="7" x2="126" y1="506" y2="506"/><!--link Transformer to State machine--><path d="M304.506,66.117 C289.461,82.868 271.57,102.788 258.025,117.87 " fill="none" id="Transformer-State machine" style="stroke: #A80036; stroke-width: 1.0;"/><polygon fill="#A80036" points="313.441,56.169,306.4559,57.9603,305.4228,65.097,312.4079,63.3057,313.441,56.169" style="stroke: #A80036; stroke-width: 1.0;"/><!--link State machine to State--><path d="M218.586,177.662 C208.118,197.102 194.817,221.804 182.952,243.839 " fill="none" id="State machine-State" style="stroke: #A80036; stroke-width: 1.0;"/><polygon fill="#FFFFFF" points="224.856,166.018,218.4892,169.4039,219.1659,176.5832,225.5327,173.1973,224.856,166.018" style="stroke: #A80036; stroke-width: 1.0;"/><text fill="#000000" font-family="sans-serif" font-size="13" lengthAdjust="spacingAndGlyphs" textLength="66" x="209.25" y="209.0669">starts with</text><text fill="#000000" font-family="sans-serif" font-size="13" lengthAdjust="spacingAndGlyphs" textLength="8" x="176.6264" y="232.8396">1</text><!--link State to State--><path d="M224.903,283.46 C237.487,285.652 246.25,291.165 246.25,300 C246.25,311.658 230.991,317.533 211.828,317.624 " fill="none" id="State-State" style="stroke: #A80036; stroke-width: 1.0;"/><polygon fill="#FFFFFF" points="211.828,282.376,217.4769,286.8581,223.787,283.3676,218.138,278.8855,211.828,282.376" style="stroke: #A80036; stroke-width: 1.0;"/><text fill="#000000" font-family="sans-serif" font-size="13" lengthAdjust="spacingAndGlyphs" textLength="84" x="252.25" y="304.0669">transitions to</text><text fill="#000000" font-family="sans-serif" font-size="13" lengthAdjust="spacingAndGlyphs" textLength="8" x="219.8138" y="314.8669">4</text><!--link Transformer to Context--><path d="M339.771,56.356 C352.815,115.405 382.403,275.13 354.25,404 C352.442,412.276 349.751,420.708 346.613,428.891 " fill="none" id="Transformer-Context" style="stroke: #A80036; stroke-width: 1.0;"/><polygon fill="#A80036" points="344.604,433.949,351.6436,427.0611,346.4496,429.3021,344.2086,424.1081,344.604,433.949" style="stroke: #A80036; stroke-width: 1.0;"/><text fill="#000000" font-family="sans-serif" font-size="13" lengthAdjust="spacingAndGlyphs" textLength="48" x="363.25" y="209.0669">creates</text><!--link State to Context--><path d="M200.761,356.136 C220.707,379.283 243.941,406.246 264.247,429.811 " fill="none" id="State-Context" style="stroke: #A80036; stroke-width: 1.0;"/><polygon fill="#A80036" points="267.74,433.865,264.8956,424.4358,264.4763,430.0771,258.835,429.6577,267.74,433.865" style="stroke: #A80036; stroke-width: 1.0;"/><text fill="#000000" font-family="sans-serif" font-size="13" lengthAdjust="spacingAndGlyphs" textLength="104" x="240.25" y="399.0669">reads and alters</text><!--link State to Mapping table--><path d="M94.7048,342.994 C81.9671,355.279 70.2261,369.816 63.25,386 C53.023,409.726 55.2898,439.463 59.2087,460.878 " fill="none" id="State-Mapping table" style="stroke: #A80036; stroke-width: 1.0;"/><polygon fill="#A80036" points="60.1775,465.8605,62.386,456.2625,59.2231,460.9524,54.5331,457.7895,60.1775,465.8605" style="stroke: #A80036; stroke-width: 1.0;"/><text fill="#000000" font-family="sans-serif" font-size="13" lengthAdjust="spacingAndGlyphs" textLength="141" x="64.25" y="399.0669">reads action definition</text></g></svg>