<?xml version="1.0" encoding="UTF-8" standalone="no"?><svg xmlns="http://www.w3.org/2000/svg" xmlns:xlink="http://www.w3.org/1999/xlink" contentScriptType="application/ecmascript" contentStyleType="text/css" height="242px" preserveAspectRatio="none" style="width:507px;height:242px;" version="1.1" viewBox="0 0 507 242" width="507px" zoomAndPan="magnify"><defs><filter height="300%" id="f8mjcdoni6vbs" width="300%" x="-1" y="-1"><feGaussianBlur result="blurOut" stdDeviation="2.0"/><feColorMatrix in="blurOut" result="blurOut2" type="matrix" values="0 0 0 0 0 0 0 0 0 0 0 0 0 0 0 0 0 0 .4 0"/><feOffset dx="4.0" dy="4.0" in="blurOut2" result="blurOut3"/><feBlend in="SourceGraphic" in2="blurOut3" mode="normal"/></filter></defs><g><ellipse cx="211.25" cy="18" fill="#000000" filter="url(#f8mjcdoni6vbs)" rx="10" ry="10" style="stroke: none; stroke-width: 1.0;"/><rect fill="#FEFECE" filter="url(#f8mjcdoni6vbs)" height="33.9688" rx="12.5" ry="12.5" style="stroke: #A80036; stroke-width: 1.5;" width="104" x="159.25" y="70"/><text fill="#000000" font-family="sans-serif" font-size="12" lengthAdjust="spacingAndGlyphs" textLength="84" x="169.25" y="91.1387">Current state</text><rect fill="#FEFECE" filter="url(#f8mjcdoni6vbs)" height="33.9688" rx="12.5" ry="12.5" style="stroke: #A80036; stroke-width: 1.5;" width="67" x="6" y="198"/><text fill="#000000" font-family="sans-serif" font-size="12" lengthAdjust="spacingAndGlyphs" textLength="47" x="16" y="219.1387">onError</text><rect fill="#FEFECE" filter="url(#f8mjcdoni6vbs)" height="33.9688" rx="12.5" ry="12.5" style="stroke: #A80036; stroke-width: 1.5;" width="59" x="123" y="198"/><text fill="#000000" font-family="sans-serif" font-size="12" lengthAdjust="spacingAndGlyphs" textLength="39" x="133" y="219.1387">onNull</text><rect fill="#FEFECE" filter="url(#f8mjcdoni6vbs)" height="33.9688" rx="12.5" ry="12.5" style="stroke: #A80036; stroke-width: 1.5;" width="84" x="228.25" y="198"/><text fill="#000000" font-family="sans-serif" font-size="12" lengthAdjust="spacingAndGlyphs" textLength="64" x="238.25" y="219.1387">onNonNull</text><rect fill="#FEFECE" filter="url(#f8mjcdoni6vbs)" height="33.9688" rx="12.5" ry="12.5" style="stroke: #A80036; stroke-width: 1.5;" width="100" x="335.25" y="198"/><text fill="#000000" font-family="sans-serif" font-size="12" lengthAdjust="spacingAndGlyphs" textLength="80" x="345.25" y="219.1387">onUndefined</text><!--link start to Current state--><path d="M211.25,28.036 C211.25,37.412 211.25,52.41 211.25,64.801 " fill="none" id="start-Current state" style="stroke: #A80036; stroke-width: 1.0;"/><polygon fill="#A80036" points="211.25,69.928,215.25,60.928,211.25,64.928,207.25,60.928,211.25,69.928" style="stroke: #A80036; stroke-width: 1.0;"/><!--link Current state to onError--><path d="M159.086,93.302 C118.119,98.593 65.6649,108.245 51.25,124 C34.4491,142.3625 33.8078,172.3099 35.7838,192.567 " fill="none" id="Current state-onError" style="stroke: #A80036; stroke-width: 1.0;"/><polygon fill="#A80036" points="36.3665,197.7503,39.3357,188.3597,35.8078,192.7816,31.3858,189.2536,36.3665,197.7503" style="stroke: #A80036; stroke-width: 1.0;"/><text fill="#000000" font-family="sans-serif" font-size="11" lengthAdjust="spacingAndGlyphs" textLength="85" x="52.25" y="148.2104">action resulted</text><text fill="#000000" font-family="sans-serif" font-size="11" lengthAdjust="spacingAndGlyphs" textLength="61" x="64.25" y="161.0151">in an error</text><!--link Current state to onNull--><path d="M171.988,104.173 C164.098,109.308 156.831,115.838 152.25,124 C140.436,145.0481 142.88,173.4652 146.676,192.694 " fill="none" id="Current state-onNull" style="stroke: #A80036; stroke-width: 1.0;"/><polygon fill="#A80036" points="147.772,197.8601,149.8171,188.2259,146.7343,192.969,141.9913,189.8862,147.772,197.8601" style="stroke: #A80036; stroke-width: 1.0;"/><text fill="#000000" font-family="sans-serif" font-size="11" lengthAdjust="spacingAndGlyphs" textLength="80" x="158.25" y="148.2104">action returns</text><text fill="#000000" font-family="sans-serif" font-size="11" lengthAdjust="spacingAndGlyphs" textLength="90" x="153.25" y="161.0151">undefined value</text><!--link Current state to onNonNull--><path d="M230.338,104.079 C236.167,109.839 242.121,116.721 246.25,124 C258.502,145.5999 264.691,173.6704 267.682,192.6766 " fill="none" id="Current state-onNonNull" style="stroke: #A80036; stroke-width: 1.0;"/><polygon fill="#A80036" points="268.443,197.784,271.0723,188.2926,267.7058,192.8386,263.1597,189.4722,268.443,197.784" style="stroke: #A80036; stroke-width: 1.0;"/><text fill="#000000" font-family="sans-serif" font-size="11" lengthAdjust="spacingAndGlyphs" textLength="80" x="269.75" y="148.2104">action returns</text><text fill="#000000" font-family="sans-serif" font-size="11" lengthAdjust="spacingAndGlyphs" textLength="87" x="266.25" y="161.0151">a defined value</text><!--link Current state to onUndefined--><path d="M263.557,94.934 C300.735,100.889 346.426,110.636 360.25,124 C378.766,141.8993 383.93,172.2257 385.182,192.6728 " fill="none" id="Current state-onUndefined" style="stroke: #A80036; stroke-width: 1.0;"/><polygon fill="#A80036" points="385.431,197.9018,388.9988,188.7219,385.1934,192.9074,381.0079,189.102,385.431,197.9018" style="stroke: #A80036; stroke-width: 1.0;"/><text fill="#000000" font-family="sans-serif" font-size="11" lengthAdjust="spacingAndGlyphs" textLength="93" x="393.75" y="135.2104">column contains</text><text fill="#000000" font-family="sans-serif" font-size="11" lengthAdjust="spacingAndGlyphs" textLength="90" x="395.25" y="148.0151">no value for the</text><text fill="#000000" font-family="sans-serif" font-size="11" lengthAdjust="spacingAndGlyphs" textLength="110" x="385.25" y="160.8198">row in the mapping</text><text fill="#000000" font-family="sans-serif" font-size="11" lengthAdjust="spacingAndGlyphs" textLength="28" x="426.25" y="173.6245">table</text></g></svg>