<?xml version="1.0" encoding="UTF-8" standalone="no"?><svg xmlns="http://www.w3.org/2000/svg" xmlns:xlink="http://www.w3.org/1999/xlink" contentScriptType="application/ecmascript" contentStyleType="text/css" height="717px" preserveAspectRatio="none" style="width:758px;height:717px;" version="1.1" viewBox="0 0 758 717" width="758px" zoomAndPan="magnify"><defs><filter height="300%" id="f4xzwfp5905tj" width="300%" x="-1" y="-1"><feGaussianBlur result="blurOut" stdDeviation="2.0"/><feColorMatrix in="blurOut" result="blurOut2" type="matrix" values="0 0 0 0 0 0 0 0 0 0 0 0 0 0 0 0 0 0 .4 0"/><feOffset dx="4.0" dy="4.0" in="blurOut2" result="blurOut3"/><feBlend in="SourceGraphic" in2="blurOut3" mode="normal"/></filter></defs><g><ellipse cx="580.56" cy="18" fill="#000000" filter="url(#f4xzwfp5905tj)" rx="10" ry="10" style="stroke: none; stroke-width: 1.0;"/><rect fill="#FEFECE" filter="url(#f4xzwfp5905tj)" height="33.9688" rx="12.5" ry="12.5" style="stroke: #A80036; stroke-width: 1.5;" width="60" x="550.56" y="70"/><text fill="#000000" font-family="sans-serif" font-size="12" lengthAdjust="spacingAndGlyphs" textLength="40" x="560.56" y="91.1387">Getter</text><rect fill="#FEFECE" filter="url(#f4xzwfp5905tj)" height="33.9688" rx="12.5" ry="12.5" style="stroke: #A80036; stroke-width: 1.5;" width="76" x="356.56" y="160"/><text fill="#000000" font-family="sans-serif" font-size="12" lengthAdjust="spacingAndGlyphs" textLength="56" x="366.56" y="181.1387">Validator</text><rect fill="#FEFECE" filter="url(#f4xzwfp5905tj)" height="33.9688" rx="12.5" ry="12.5" style="stroke: #A80036; stroke-width: 1.5;" width="296" x="327.56" y="340"/><text fill="#000000" font-family="sans-serif" font-size="12" lengthAdjust="spacingAndGlyphs" textLength="276" x="337.56" y="361.1387">Warning if defined or data error if undefined</text><rect fill="#FEFECE" filter="url(#f4xzwfp5905tj)" height="33.9688" rx="12.5" ry="12.5" style="stroke: #A80036; stroke-width: 1.5;" width="78" x="409.56" y="430"/><text fill="#000000" font-family="sans-serif" font-size="12" lengthAdjust="spacingAndGlyphs" textLength="58" x="419.56" y="451.1387">Defaulter</text><rect fill="#FEFECE" filter="url(#f4xzwfp5905tj)" height="33.9688" rx="12.5" ry="12.5" style="stroke: #A80036; stroke-width: 1.5;" width="84" x="215.56" y="250"/><text fill="#000000" font-family="sans-serif" font-size="12" lengthAdjust="spacingAndGlyphs" textLength="64" x="225.56" y="271.1387">Translator</text><rect fill="#FEFECE" filter="url(#f4xzwfp5905tj)" height="33.9688" rx="12.5" ry="12.5" style="stroke: #A80036; stroke-width: 1.5;" width="59" x="130.31" y="520"/><text fill="#000000" font-family="sans-serif" font-size="12" lengthAdjust="spacingAndGlyphs" textLength="39" x="140.31" y="541.1387">Setter</text><rect fill="#FEFECE" filter="url(#f4xzwfp5905tj)" height="33.9688" rx="12.5" ry="12.5" style="stroke: #A80036; stroke-width: 1.5;" width="87" x="320.31" y="610"/><text fill="#000000" font-family="sans-serif" font-size="12" lengthAdjust="spacingAndGlyphs" textLength="67" x="330.31" y="631.1387">Code error</text><rect fill="#FEFECE" filter="url(#f4xzwfp5905tj)" height="33.9688" rx="12.5" ry="12.5" style="stroke: #A80036; stroke-width: 1.5;" width="44" x="106.56" y="610"/><text fill="#000000" font-family="sans-serif" font-size="12" lengthAdjust="spacingAndGlyphs" textLength="24" x="116.56" y="631.1387">End</text><ellipse cx="363.56" cy="696" fill="none" filter="url(#f4xzwfp5905tj)" rx="10" ry="10" style="stroke: #000000; stroke-width: 1.0;"/><ellipse cx="364.06" cy="696.5" fill="#000000" rx="6" ry="6" style="stroke: none; stroke-width: 1.0;"/><!--link start to Getter--><path d="M580.56,28.036 C580.56,37.412 580.56,52.41 580.56,64.801 " fill="none" id="start-Getter" style="stroke: #A80036; stroke-width: 1.0;"/><polygon fill="#A80036" points="580.56,69.928,584.56,60.928,580.56,64.928,576.56,60.928,580.56,69.928" style="stroke: #A80036; stroke-width: 1.0;"/><!--link Getter to Validator--><path d="M550.222,95.94 C528.34,102.205 498.403,111.896 473.56,124 C454.67,133.203 434.925,146.199 419.9,156.896 " fill="none" id="Getter-Validator" style="stroke: #A80036; stroke-width: 1.0;"/><polygon fill="#A80036" points="415.792,159.847,425.435,157.8439,419.8525,156.9295,420.767,151.347,415.792,159.847" style="stroke: #A80036; stroke-width: 1.0;"/><text fill="#000000" font-family="sans-serif" font-size="11" lengthAdjust="spacingAndGlyphs" textLength="57" x="474.56" y="135.7104">onNonNull</text><!--link Getter to Warning if defined or data error if undefined--><path d="M575.837,104.039 C565.694,137.865 540.473,218.767 512.56,284 C505.009,301.645 494.985,320.953 487.276,335.129 " fill="none" id="Getter-Warning if defined or data error if undefined" style="stroke: #A80036; stroke-width: 1.0;"/><polygon fill="#A80036" points="484.757,339.73,492.5879,333.757,487.1584,335.3444,485.571,329.9148,484.757,339.73" style="stroke: #A80036; stroke-width: 1.0;"/><text fill="#000000" font-family="sans-serif" font-size="11" lengthAdjust="spacingAndGlyphs" textLength="35" x="541.56" y="225.7104">onNull</text><!--link Getter to Warning if defined or data error if undefined--><path d="M584.38,104.291 C589.95,131.258 598.14,186.515 583.56,230 C568.519,274.858 528.335,314.012 501.453,336.322 " fill="none" id="Getter-Warning if defined or data error if undefined-1" style="stroke: #A80036; stroke-width: 1.0;"/><polygon fill="#A80036" points="497.259,339.757,506.7562,337.1487,501.1271,336.5888,501.6871,330.9597,497.259,339.757" style="stroke: #A80036; stroke-width: 1.0;"/><text fill="#000000" font-family="sans-serif" font-size="11" lengthAdjust="spacingAndGlyphs" textLength="43" x="589.56" y="225.7104">onError</text><!--link Getter to Defaulter--><path d="M610.56,100.886 C638.07,114.958 674.56,140.344 674.56,176 C674.56,176 674.56,176 674.56,358 C674.56,396.626 558.479,425.086 492.703,438.113 " fill="none" id="Getter-Defaulter" style="stroke: #A80036; stroke-width: 1.0;"/><polygon fill="#A80036" points="487.668,439.099,497.2693,441.2934,492.5747,438.1374,495.7307,433.4428,487.668,439.099" style="stroke: #A80036; stroke-width: 1.0;"/><text fill="#000000" font-family="sans-serif" font-size="11" lengthAdjust="spacingAndGlyphs" textLength="71" x="675.56" y="270.7104">onUndefined</text><!--link Validator to Translator--><path d="M356.246,180.373 C310.045,184.128 236.464,193.264 219.56,214 C210.99,224.511 219.071,236.735 229.948,246.689 " fill="none" id="Validator-Translator" style="stroke: #A80036; stroke-width: 1.0;"/><polygon fill="#A80036" points="233.724,249.972,229.5563,241.0484,229.9506,246.6915,224.3075,247.0859,233.724,249.972" style="stroke: #A80036; stroke-width: 1.0;"/><text fill="#000000" font-family="sans-serif" font-size="11" lengthAdjust="spacingAndGlyphs" textLength="57" x="220.56" y="225.7104">onNonNull</text><!--link Validator to Translator--><path d="M356.295,188.979 C339.53,194.847 320.166,203.134 304.56,214 C292.216,222.594 280.837,235.01 272.367,245.555 " fill="none" id="Validator-Translator-1" style="stroke: #A80036; stroke-width: 1.0;"/><polygon fill="#A80036" points="269.152,249.642,277.8592,245.0394,272.2424,245.7114,271.5703,240.0947,269.152,249.642" style="stroke: #A80036; stroke-width: 1.0;"/><text fill="#000000" font-family="sans-serif" font-size="11" lengthAdjust="spacingAndGlyphs" textLength="71" x="305.56" y="225.7104">onUndefined</text><!--link Validator to Warning if defined or data error if undefined--><path d="M393.942,194.288 C393.76,215.855 395.668,254.59 409.56,284 C419.224,304.462 436.748,323.157 451.311,336.366 " fill="none" id="Validator-Warning if defined or data error if undefined" style="stroke: #A80036; stroke-width: 1.0;"/><polygon fill="#A80036" points="455.331,339.943,451.2648,330.9727,451.5951,336.6199,445.9479,336.9502,455.331,339.943" style="stroke: #A80036; stroke-width: 1.0;"/><text fill="#000000" font-family="sans-serif" font-size="11" lengthAdjust="spacingAndGlyphs" textLength="35" x="410.56" y="270.7104">onNull</text><!--link Validator to Warning if defined or data error if undefined--><path d="M409.706,194.215 C421.863,208.055 438.507,229.001 448.56,250 C461.844,277.751 469.128,312.831 472.686,334.849 " fill="none" id="Validator-Warning if defined or data error if undefined-1" style="stroke: #A80036; stroke-width: 1.0;"/><polygon fill="#A80036" points="473.471,339.882,476.0345,330.3726,472.6996,334.9419,468.1303,331.6069,473.471,339.882" style="stroke: #A80036; stroke-width: 1.0;"/><text fill="#000000" font-family="sans-serif" font-size="11" lengthAdjust="spacingAndGlyphs" textLength="43" x="462.56" y="270.7104">onError</text><!--link Translator to Setter--><path d="M220.998,284.067 C210.58,289.564 199.612,296.3 190.56,304 C152.168,336.658 137.751,346.269 121.56,394 C107.222,436.265 130.207,487.052 146.213,514.994 " fill="none" id="Translator-Setter" style="stroke: #A80036; stroke-width: 1.0;"/><polygon fill="#A80036" points="148.912,519.608,147.8208,509.8198,146.3876,515.2921,140.9153,513.8588,148.912,519.608" style="stroke: #A80036; stroke-width: 1.0;"/><text fill="#000000" font-family="sans-serif" font-size="11" lengthAdjust="spacingAndGlyphs" textLength="57" x="122.56" y="405.7104">onNonNull</text><!--link Translator to Setter--><path d="M250.617,284.179 C240.472,308.034 221.21,354.128 206.56,394 C190.962,436.451 174.834,486.863 166.116,514.757 " fill="none" id="Translator-Setter-1" style="stroke: #A80036; stroke-width: 1.0;"/><polygon fill="#A80036" points="164.577,519.697,171.0752,512.2961,166.0657,514.9238,163.4381,509.9142,164.577,519.697" style="stroke: #A80036; stroke-width: 1.0;"/><text fill="#000000" font-family="sans-serif" font-size="11" lengthAdjust="spacingAndGlyphs" textLength="71" x="207.56" y="405.7104">onUndefined</text><!--link Translator to Code error--><path d="M260.403,284.278 C267.279,322.478 286.136,420.644 311.56,500 C323.676,537.819 342.252,580.198 353.612,604.909 " fill="none" id="Translator-Code error" style="stroke: #A80036; stroke-width: 1.0;"/><polygon fill="#A80036" points="355.784,609.6085,355.64,599.7607,353.6867,605.0696,348.3778,603.1163,355.784,609.6085" style="stroke: #A80036; stroke-width: 1.0;"/><text fill="#000000" font-family="sans-serif" font-size="11" lengthAdjust="spacingAndGlyphs" textLength="35" x="302.56" y="450.7104">onNull</text><!--link Translator to Warning if defined or data error if undefined--><path d="M280.468,284.178 C301.455,298.954 329.692,318.697 332.56,320 C349.178,327.55 367.631,333.687 385.609,338.612 " fill="none" id="Translator-Warning if defined or data error if undefined" style="stroke: #A80036; stroke-width: 1.0;"/><polygon fill="#A80036" points="390.665,339.969,383.0092,333.7731,385.8358,338.6731,380.9358,341.4998,390.665,339.969" style="stroke: #A80036; stroke-width: 1.0;"/><text fill="#000000" font-family="sans-serif" font-size="11" lengthAdjust="spacingAndGlyphs" textLength="43" x="333.56" y="315.7104">onError</text><!--link Defaulter to Setter--><path d="M409.283,459.96 C352.47,477.259 248.258,508.991 194.176,525.459 " fill="none" id="Defaulter-Setter" style="stroke: #A80036; stroke-width: 1.0;"/><polygon fill="#A80036" points="189.102,527.004,198.8767,528.2101,193.8854,525.5481,196.5473,520.5568,189.102,527.004" style="stroke: #A80036; stroke-width: 1.0;"/><text fill="#000000" font-family="sans-serif" font-size="11" lengthAdjust="spacingAndGlyphs" textLength="57" x="331.56" y="495.7104">onNonNull</text><!--link Defaulter to Code error--><path d="M430.375,464.24 C411.812,481.226 384.854,507.165 378.56,520 C365.301,547.036 362.816,582.306 362.779,604.56 " fill="none" id="Defaulter-Code error" style="stroke: #A80036; stroke-width: 1.0;"/><polygon fill="#A80036" points="362.813,609.6503,366.7538,600.6242,362.7801,604.6504,358.7539,600.6768,362.813,609.6503" style="stroke: #A80036; stroke-width: 1.0;"/><text fill="#000000" font-family="sans-serif" font-size="11" lengthAdjust="spacingAndGlyphs" textLength="35" x="379.56" y="540.7104">onNull</text><!--link Defaulter to Code error--><path d="M445.723,464.109 C441.549,485.478 432.576,523.994 417.56,554 C408.054,572.994 393.417,592.118 381.779,605.878 " fill="none" id="Defaulter-Code error-1" style="stroke: #A80036; stroke-width: 1.0;"/><polygon fill="#A80036" points="378.272,609.9702,387.1652,605.738,381.5251,606.1732,381.0899,600.5331,378.272,609.9702" style="stroke: #A80036; stroke-width: 1.0;"/><text fill="#000000" font-family="sans-serif" font-size="11" lengthAdjust="spacingAndGlyphs" textLength="43" x="432.56" y="540.7104">onError</text><!--link Defaulter to Code error--><path d="M461.605,464.272 C477.182,485.822 499.169,524.538 482.56,554 C467.377,580.931 437.616,598.933 411.657,610.2015 " fill="none" id="Defaulter-Code error-2" style="stroke: #A80036; stroke-width: 1.0;"/><polygon fill="#A80036" points="406.858,612.2278,416.7052,612.4104,411.4639,610.2822,413.5922,605.0409,406.858,612.2278" style="stroke: #A80036; stroke-width: 1.0;"/><text fill="#000000" font-family="sans-serif" font-size="11" lengthAdjust="spacingAndGlyphs" textLength="71" x="489.56" y="540.7104">onUndefined</text><!--link Setter to End--><path d="M130.107,540.912 C91.235,545.434 26.0205,555.6 11.5596,574 C-13.9282,606.4306 59.008,619.1678 101.0731,623.7218 " fill="none" id="Setter-End" style="stroke: #A80036; stroke-width: 1.0;"/><polygon fill="#A80036" points="106.291,624.2621,97.751,619.3561,101.3176,623.7469,96.9268,627.3135,106.291,624.2621" style="stroke: #A80036; stroke-width: 1.0;"/><text fill="#000000" font-family="sans-serif" font-size="11" lengthAdjust="spacingAndGlyphs" textLength="57" x="12.5596" y="585.7104">onNonNull</text><!--link Setter to End--><path d="M130.224,547.184 C117.517,552.785 103.8941,561.361 96.5596,574 C90.3595,584.684 96.4346,596.416 104.8942,606.0281 " fill="none" id="Setter-End-1" style="stroke: #A80036; stroke-width: 1.0;"/><polygon fill="#A80036" points="108.366,609.7365,105.1336,600.4332,104.9482,606.087,99.2944,605.9016,108.366,609.7365" style="stroke: #A80036; stroke-width: 1.0;"/><text fill="#000000" font-family="sans-serif" font-size="11" lengthAdjust="spacingAndGlyphs" textLength="35" x="97.5596" y="585.7104">onNull</text><!--link Setter to End--><path d="M153.874,554.141 C148.848,568.406 141.485,589.309 135.994,604.896 " fill="none" id="Setter-End-2" style="stroke: #A80036; stroke-width: 1.0;"/><polygon fill="#A80036" points="134.209,609.9618,140.9724,602.8024,135.8705,605.2459,133.427,600.144,134.209,609.9618" style="stroke: #A80036; stroke-width: 1.0;"/><text fill="#000000" font-family="sans-serif" font-size="11" lengthAdjust="spacingAndGlyphs" textLength="71" x="148.56" y="585.7104">onUndefined</text><!--link Setter to Code error--><path d="M188.88,553.692 C215.457,567.868 251.517,586.965 258.56,590 C276.677,597.809 297.095,605.13 315.078,611.1035 " fill="none" id="Setter-Code error" style="stroke: #A80036; stroke-width: 1.0;"/><polygon fill="#A80036" points="320.081,612.7521,312.7843,606.1371,315.332,611.1878,310.2814,613.7355,320.081,612.7521" style="stroke: #A80036; stroke-width: 1.0;"/><text fill="#000000" font-family="sans-serif" font-size="11" lengthAdjust="spacingAndGlyphs" textLength="43" x="259.56" y="585.7104">onError</text><!--link Code error to end--><path d="M363.56,644.2188 C363.56,655.2999 363.56,669.8549 363.56,680.5405 " fill="none" id="Code error-end" style="stroke: #A80036; stroke-width: 1.0;"/><polygon fill="#A80036" points="363.56,685.7367,367.56,676.7367,363.56,680.7367,359.56,676.7367,363.56,685.7367" style="stroke: #A80036; stroke-width: 1.0;"/><!--link Warning if defined or data error if undefined to Defaulter--><path d="M470.607,374.141 C466.23,388.406 459.817,409.309 455.035,424.896 " fill="none" id="Warning if defined or data error if undefined-Defaulter" style="stroke: #A80036; stroke-width: 1.0;"/><polygon fill="#A80036" points="453.48,429.962,459.9447,422.5318,454.9471,425.1821,452.2969,420.1845,453.48,429.962" style="stroke: #A80036; stroke-width: 1.0;"/><text fill="#000000" font-family="sans-serif" font-size="11" lengthAdjust="spacingAndGlyphs" textLength="42" x="465.56" y="405.7104">defined</text><!--link Warning if defined or data error if undefined to end--><path d="M569.715,374.062 C607.182,386.361 641.56,407.999 641.56,446 C641.56,446 641.56,446 641.56,628 C641.56,682.4669 437.327,692.7863 378.964,694.6233 " fill="none" id="Warning if defined or data error if undefined-end" style="stroke: #A80036; stroke-width: 1.0;"/><polygon fill="#A80036" points="373.783,694.7758,382.8968,698.5092,378.7808,694.6287,382.6614,690.5127,373.783,694.7758" style="stroke: #A80036; stroke-width: 1.0;"/><text fill="#000000" font-family="sans-serif" font-size="11" lengthAdjust="spacingAndGlyphs" textLength="64" x="642.56" y="540.7104">not defined</text><!--link End to end--><path d="M150.668,634.3032 C198.344,647.8959 309.709,679.6468 349.288,690.9311 " fill="none" id="End-end" style="stroke: #A80036; stroke-width: 1.0;"/><polygon fill="#A80036" points="354.173,692.3237,346.6152,686.0086,349.3647,690.9523,344.421,693.7018,354.173,692.3237" style="stroke: #A80036; stroke-width: 1.0;"/></g></svg>