<?xml version="1.0" encoding="UTF-8" standalone="no"?><svg xmlns="http://www.w3.org/2000/svg" xmlns:xlink="http://www.w3.org/1999/xlink" contentScriptType="application/ecmascript" contentStyleType="text/css" height="873px" preserveAspectRatio="none" style="width:510px;height:873px;" version="1.1" viewBox="0 0 510 873" width="510px" zoomAndPan="magnify"><defs><filter height="300%" id="f12t8j0eokyjse" width="300%" x="-1" y="-1"><feGaussianBlur result="blurOut" stdDeviation="2.0"/><feColorMatrix in="blurOut" result="blurOut2" type="matrix" values="0 0 0 0 0 0 0 0 0 0 0 0 0 0 0 0 0 0 .4 0"/><feOffset dx="4.0" dy="4.0" in="blurOut2" result="blurOut3"/><feBlend in="SourceGraphic" in2="blurOut3" mode="normal"/></filter></defs><g><ellipse cx="399.25" cy="18" fill="#000000" filter="url(#f12t8j0eokyjse)" rx="10" ry="10" style="stroke: none; stroke-width: 1.0;"/><rect fill="#FEFECE" filter="url(#f12t8j0eokyjse)" height="50" rx="12.5" ry="12.5" style="stroke: #A80036; stroke-width: 1.5;" width="62" x="368.25" y="90"/><line style="stroke: #A80036; stroke-width: 1.5;" x1="368.25" x2="430.25" y1="116.2969" y2="116.2969"/><text fill="#000000" font-family="sans-serif" font-size="14" lengthAdjust="spacingAndGlyphs" textLength="42" x="378.25" y="107.9951">getter</text><rect fill="#FEFECE" filter="url(#f12t8j0eokyjse)" height="50" rx="12.5" ry="12.5" style="stroke: #A80036; stroke-width: 1.5;" width="77" x="172" y="202"/><line style="stroke: #A80036; stroke-width: 1.5;" x1="172" x2="249" y1="228.2969" y2="228.2969"/><text fill="#000000" font-family="sans-serif" font-size="14" lengthAdjust="spacingAndGlyphs" textLength="57" x="182" y="219.9951">validator</text><rect fill="#FEFECE" filter="url(#f12t8j0eokyjse)" height="50" rx="12.5" ry="12.5" style="stroke: #A80036; stroke-width: 1.5;" width="85" x="6" y="346"/><line style="stroke: #A80036; stroke-width: 1.5;" x1="6" x2="91" y1="372.2969" y2="372.2969"/><text fill="#000000" font-family="sans-serif" font-size="14" lengthAdjust="spacingAndGlyphs" textLength="65" x="16" y="363.9951">translator</text><rect fill="#FEFECE" filter="url(#f12t8j0eokyjse)" height="50" rx="12.5" ry="12.5" style="stroke: #A80036; stroke-width: 1.5;" width="61" x="104" y="602"/><line style="stroke: #A80036; stroke-width: 1.5;" x1="104" x2="165" y1="628.2969" y2="628.2969"/><text fill="#000000" font-family="sans-serif" font-size="14" lengthAdjust="spacingAndGlyphs" textLength="41" x="114" y="619.9951">setter</text><ellipse cx="161.25" cy="852" fill="none" filter="url(#f12t8j0eokyjse)" rx="10" ry="10" style="stroke: #000000; stroke-width: 1.0;"/><ellipse cx="161.75" cy="852.5" fill="#000000" rx="6" ry="6" style="stroke: none; stroke-width: 1.0;"/><rect fill="#FEFECE" filter="url(#f12t8j0eokyjse)" height="50" rx="12.5" ry="12.5" style="stroke: #A80036; stroke-width: 1.5;" width="88" x="180.25" y="730"/><line style="stroke: #A80036; stroke-width: 1.5;" x1="180.25" x2="268.25" y1="756.2969" y2="756.2969"/><text fill="#000000" font-family="sans-serif" font-size="14" lengthAdjust="spacingAndGlyphs" textLength="68" x="190.25" y="747.9951">codeerror</text><rect fill="#FEFECE" filter="url(#f12t8j0eokyjse)" height="50" rx="12.5" ry="12.5" style="stroke: #A80036; stroke-width: 1.5;" width="81" x="202" y="474"/><line style="stroke: #A80036; stroke-width: 1.5;" x1="202" x2="283" y1="500.2969" y2="500.2969"/><text fill="#000000" font-family="sans-serif" font-size="14" lengthAdjust="spacingAndGlyphs" textLength="61" x="212" y="491.9951">defaulter</text><!--link *start to getter--><path d="M399.25,28.109 C399.25,41.014 399.25,65.21 399.25,84.641 " fill="none" id="*start-getter" style="stroke: #A80036; stroke-width: 1.0;"/><polygon fill="#A80036" points="399.25,89.981,403.25,80.981,399.25,84.981,395.25,80.981,399.25,89.981" style="stroke: #A80036; stroke-width: 1.0;"/><!--link getter to validator--><path d="M368.04,134.164 C336.734,152.385 288.276,180.588 253.32,200.933 " fill="none" id="getter-validator" style="stroke: #A80036; stroke-width: 1.0;"/><polygon fill="#A80036" points="248.696,203.624,258.4864,202.5529,253.0171,201.1085,254.4616,195.6391,248.696,203.624" style="stroke: #A80036; stroke-width: 1.0;"/><!--link validator to translator--><path d="M174.225,252.1 C161.554,261.05 147.443,271.571 135.25,282 C113.393,300.694 90.6039,323.902 73.8348,341.79 " fill="none" id="validator-translator" style="stroke: #A80036; stroke-width: 1.0;"/><polygon fill="#A80036" points="70.1364,345.754,79.2012,341.9032,73.5478,342.0985,73.3524,336.445,70.1364,345.754" style="stroke: #A80036; stroke-width: 1.0;"/><!--link translator to setter--><path d="M56.496,396.355 C72.3884,443.292 107.198,546.102 124.328,596.696 " fill="none" id="translator-setter" style="stroke: #A80036; stroke-width: 1.0;"/><polygon fill="#A80036" points="126.029,601.719,126.9325,591.9117,124.426,596.9829,119.3548,594.4764,126.029,601.719" style="stroke: #A80036; stroke-width: 1.0;"/><!--link setter to *end--><path d="M137.191,652.289 C142.845,698.985 155.067,799.9337 159.554,836.991 " fill="none" id="setter-*end" style="stroke: #A80036; stroke-width: 1.0;"/><polygon fill="#A80036" points="160.158,841.9809,163.0467,832.5652,159.5568,837.0172,155.1048,833.5272,160.158,841.9809" style="stroke: #A80036; stroke-width: 1.0;"/><!--link setter to codeerror--><path d="M149.817,652.3 C159.006,666.4 171.006,684.4 182.25,700 C188.397,708.528 195.314,717.615 201.735,725.854 " fill="none" id="setter-codeerror" style="stroke: #A80036; stroke-width: 1.0;"/><polygon fill="#A80036" points="204.841,729.825,202.4456,720.2719,201.76,725.887,196.1449,725.2014,204.841,729.825" style="stroke: #A80036; stroke-width: 1.0;"/><text fill="#000000" font-family="sans-serif" font-size="13" lengthAdjust="spacingAndGlyphs" textLength="31" x="183.25" y="695.0669">Error</text><!--link getter to defaulter--><path d="M395.718,140.367 C387.776,190.437 365.632,307.611 321.25,396 C307.493,423.398 285.863,450.657 268.712,470.094 " fill="none" id="getter-defaulter" style="stroke: #A80036; stroke-width: 1.0;"/><polygon fill="#A80036" points="265.345,473.874,274.3178,469.8133,268.6704,470.1401,268.3435,464.4927,265.345,473.874" style="stroke: #A80036; stroke-width: 1.0;"/><text fill="#000000" font-family="sans-serif" font-size="13" lengthAdjust="spacingAndGlyphs" textLength="31" x="364.25" y="303.0669">Error</text><!--link getter to defaulter--><path d="M408.561,140.087 C411.66,149.298 414.712,159.994 416.25,170 C426.135,234.318 424.998,253.996 405.25,316 C384.674,380.605 371.055,396.934 322.25,444 C311.722,454.153 299.074,463.659 286.975,471.78 " fill="none" id="getter-defaulter-1" style="stroke: #A80036; stroke-width: 1.0;"/><polygon fill="#A80036" points="282.547,474.708,292.2601,473.0785,286.7171,471.9494,287.8463,466.4063,282.547,474.708" style="stroke: #A80036; stroke-width: 1.0;"/><text fill="#000000" font-family="sans-serif" font-size="13" lengthAdjust="spacingAndGlyphs" textLength="83" x="415.25" y="295.5669">Missing input</text><text fill="#000000" font-family="sans-serif" font-size="13" lengthAdjust="spacingAndGlyphs" textLength="64" x="424.75" y="310.6997">field value</text><!--link validator to defaulter--><path d="M201.491,252.245 C190.849,285.191 175.77,345.755 188.25,396 C194.851,422.576 209.793,449.846 222.29,469.495 " fill="none" id="validator-defaulter" style="stroke: #A80036; stroke-width: 1.0;"/><polygon fill="#A80036" points="225.079,473.819,223.5635,464.0874,222.3694,469.6168,216.8401,468.4227,225.079,473.819" style="stroke: #A80036; stroke-width: 1.0;"/><text fill="#000000" font-family="sans-serif" font-size="13" lengthAdjust="spacingAndGlyphs" textLength="31" x="189.25" y="375.0669">Error</text><!--link validator to defaulter--><path d="M213.772,252.38 C217.166,276.222 222.345,313.57 226.25,346 C231.377,388.585 236.409,437.995 239.421,468.632 " fill="none" id="validator-defaulter-1" style="stroke: #A80036; stroke-width: 1.0;"/><polygon fill="#A80036" points="239.923,473.755,243.027,464.4081,239.4358,468.7788,235.0651,465.1876,239.923,473.755" style="stroke: #A80036; stroke-width: 1.0;"/><text fill="#000000" font-family="sans-serif" font-size="13" lengthAdjust="spacingAndGlyphs" textLength="78" x="233.25" y="375.0669">Invalid value</text><!--link translator to defaulter--><path d="M61.1999,396.197 C70.5495,411.687 84.458,431.208 101.25,444 C129.536,465.548 167.436,479.422 196.818,487.705 " fill="none" id="translator-defaulter" style="stroke: #A80036; stroke-width: 1.0;"/><polygon fill="#A80036" points="201.829,489.086,194.2155,482.8383,197.0088,487.7574,192.0897,490.5506,201.829,489.086" style="stroke: #A80036; stroke-width: 1.0;"/><text fill="#000000" font-family="sans-serif" font-size="13" lengthAdjust="spacingAndGlyphs" textLength="31" x="102.25" y="439.0669">Error</text><!--link defaulter to setter--><path d="M201.882,519.527 C187.115,528.333 171.329,539.943 160.25,554 C150.505,566.364 144.212,582.701 140.262,596.688 " fill="none" id="defaulter-setter" style="stroke: #A80036; stroke-width: 1.0;"/><polygon fill="#A80036" points="138.911,601.722,145.1069,594.0662,140.2069,596.8928,137.3802,591.9928,138.911,601.722" style="stroke: #A80036; stroke-width: 1.0;"/><text fill="#000000" font-family="sans-serif" font-size="13" lengthAdjust="spacingAndGlyphs" textLength="53" x="161.25" y="567.0669">No error</text><!--link defaulter to codeerror--><path d="M240.524,524.355 C237.198,571.292 229.912,674.102 226.327,724.696 " fill="none" id="defaulter-codeerror" style="stroke: #A80036; stroke-width: 1.0;"/><polygon fill="#A80036" points="225.971,729.719,230.5962,721.0238,226.3239,724.7315,222.6162,720.4591,225.971,729.719" style="stroke: #A80036; stroke-width: 1.0;"/><text fill="#000000" font-family="sans-serif" font-size="13" lengthAdjust="spacingAndGlyphs" textLength="31" x="236.25" y="631.0669">Error</text><!--link codeerror to *end--><path d="M208.026,780.4649 C195.603,799.198 178.997,824.2382 169.279,838.893 " fill="none" id="codeerror-*end" style="stroke: #A80036; stroke-width: 1.0;"/><polygon fill="#A80036" points="166.496,843.0892,174.8035,837.7991,169.2592,838.9221,168.1362,833.3779,166.496,843.0892" style="stroke: #A80036; stroke-width: 1.0;"/></g></svg>