<?xml version="1.0" encoding="UTF-8" standalone="no"?><svg xmlns="http://www.w3.org/2000/svg" xmlns:xlink="http://www.w3.org/1999/xlink" contentScriptType="application/ecmascript" contentStyleType="text/css" height="382px" preserveAspectRatio="none" style="width:414px;height:382px;" version="1.1" viewBox="0 0 414 382" width="414px" zoomAndPan="magnify"><defs><filter height="300%" id="f1mgk85v8a64f8" width="300%" x="-1" y="-1"><feGaussianBlur result="blurOut" stdDeviation="2.0"/><feColorMatrix in="blurOut" result="blurOut2" type="matrix" values="0 0 0 0 0 0 0 0 0 0 0 0 0 0 0 0 0 0 .4 0"/><feOffset dx="4.0" dy="4.0" in="blurOut2" result="blurOut3"/><feBlend in="SourceGraphic" in2="blurOut3" mode="normal"/></filter></defs><g><ellipse cx="184.5" cy="20" fill="#000000" filter="url(#f1mgk85v8a64f8)" rx="10" ry="10" style="stroke: none; stroke-width: 1.0;"/><rect fill="#FEFECE" filter="url(#f1mgk85v8a64f8)" height="33.9688" rx="12.5" ry="12.5" style="stroke: #A80036; stroke-width: 1.5;" width="195" x="87" y="71.3989"/><text fill="#000000" font-family="sans-serif" font-size="12" lengthAdjust="spacingAndGlyphs" textLength="175" x="97" y="92.5376">Create empty output record</text><rect fill="#FEFECE" filter="url(#f1mgk85v8a64f8)" height="33.9688" rx="12.5" ry="12.5" style="stroke: #A80036; stroke-width: 1.5;" width="297" x="36" y="217.1021"/><text fill="#000000" font-family="sans-serif" font-size="12" lengthAdjust="spacingAndGlyphs" textLength="277" x="46" y="238.2407">Perform steps defined by mapping table row</text><polygon fill="#FEFECE" filter="url(#f1mgk85v8a64f8)" points="98,146.7666,271,146.7666,283,158.7666,271,170.7666,98,170.7666,86,158.7666,98,146.7666" style="stroke: #A80036; stroke-width: 1.5;"/><text fill="#000000" font-family="sans-serif" font-size="11" lengthAdjust="spacingAndGlyphs" textLength="94" x="188.5" y="180.9771">Input record and</text><text fill="#000000" font-family="sans-serif" font-size="11" lengthAdjust="spacingAndGlyphs" textLength="117" x="188.5" y="193.7817">partial output record</text><text fill="#000000" font-family="sans-serif" font-size="11" lengthAdjust="spacingAndGlyphs" textLength="173" x="98" y="162.5747">For each row in mapping table</text><rect fill="#FEFECE" filter="url(#f1mgk85v8a64f8)" height="33.9688" rx="12.5" ry="12.5" style="stroke: #A80036; stroke-width: 1.5;" width="157" x="106" y="295.0708"/><text fill="#000000" font-family="sans-serif" font-size="12" lengthAdjust="spacingAndGlyphs" textLength="133" x="120" y="316.2095">Return output record</text><ellipse cx="184.5" cy="360.0396" fill="#FFFFFF" filter="url(#f1mgk85v8a64f8)" rx="11" ry="11" style="stroke: #000000; stroke-width: 1.0;"/><ellipse cx="184.5" cy="360.0396" fill="#000000" rx="6" ry="6" style="stroke: #7F7F7F; stroke-width: 1.0;"/><line style="stroke: #A80036; stroke-width: 1.5;" x1="184.5" x2="184.5" y1="30" y2="71.3989"/><polygon fill="#A80036" points="180.5,61.3989,184.5,71.3989,188.5,61.3989,184.5,65.3989" style="stroke: #A80036; stroke-width: 1.0;"/><text fill="#000000" font-family="sans-serif" font-size="11" lengthAdjust="spacingAndGlyphs" textLength="69" x="188.5" y="51.3047">Input record</text><line style="stroke: #A80036; stroke-width: 1.5;" x1="184.5" x2="184.5" y1="170.7666" y2="217.1021"/><polygon fill="#A80036" points="180.5,207.1021,184.5,217.1021,188.5,207.1021,184.5,211.1021" style="stroke: #A80036; stroke-width: 1.0;"/><line style="stroke: #A80036; stroke-width: 1.5;" x1="184.5" x2="184.5" y1="251.0708" y2="263.0708"/><line style="stroke: #A80036; stroke-width: 1.5;" x1="184.5" x2="345" y1="263.0708" y2="263.0708"/><polygon fill="#A80036" points="341,219.2817,345,209.2817,349,219.2817,345,215.2817" style="stroke: #A80036; stroke-width: 1.5;"/><line style="stroke: #A80036; stroke-width: 1.5;" x1="345" x2="345" y1="158.7666" y2="263.0708"/><line style="stroke: #A80036; stroke-width: 1.5;" x1="345" x2="283" y1="158.7666" y2="158.7666"/><polygon fill="#A80036" points="293,154.7666,283,158.7666,293,162.7666,289,158.7666" style="stroke: #A80036; stroke-width: 1.0;"/><text fill="#000000" font-family="sans-serif" font-size="11" lengthAdjust="spacingAndGlyphs" textLength="94" x="188.5" y="254.4766">Input record and</text><text fill="#000000" font-family="sans-serif" font-size="11" lengthAdjust="spacingAndGlyphs" textLength="117" x="188.5" y="267.2813">partial output record</text><line style="stroke: #A80036; stroke-width: 1.5;" x1="86" x2="24" y1="158.7666" y2="158.7666"/><polygon fill="#A80036" points="20,205.2817,24,215.2817,28,205.2817,24,209.2817" style="stroke: #A80036; stroke-width: 1.5;"/><line style="stroke: #A80036; stroke-width: 1.5;" x1="24" x2="24" y1="158.7666" y2="275.0708"/><line style="stroke: #A80036; stroke-width: 1.5;" x1="24" x2="184.5" y1="275.0708" y2="275.0708"/><line style="stroke: #A80036; stroke-width: 1.5;" x1="184.5" x2="184.5" y1="275.0708" y2="295.0708"/><polygon fill="#A80036" points="180.5,285.0708,184.5,295.0708,188.5,285.0708,184.5,289.0708" style="stroke: #A80036; stroke-width: 1.0;"/><line style="stroke: #A80036; stroke-width: 1.5;" x1="184.5" x2="184.5" y1="105.3677" y2="146.7666"/><polygon fill="#A80036" points="180.5,136.7666,184.5,146.7666,188.5,136.7666,184.5,140.7666" style="stroke: #A80036; stroke-width: 1.0;"/><text fill="#000000" font-family="sans-serif" font-size="11" lengthAdjust="spacingAndGlyphs" textLength="214" x="188.5" y="126.6724">Input record and empty output record</text><line style="stroke: #A80036; stroke-width: 1.5;" x1="184.5" x2="184.5" y1="329.0396" y2="349.0396"/><polygon fill="#A80036" points="180.5,339.0396,184.5,349.0396,188.5,339.0396,184.5,343.0396" style="stroke: #A80036; stroke-width: 1.0;"/></g></svg>