<?xml version="1.0" encoding="UTF-8" standalone="no"?><svg xmlns="http://www.w3.org/2000/svg" xmlns:xlink="http://www.w3.org/1999/xlink" contentScriptType="application/ecmascript" contentStyleType="text/css" height="339px" preserveAspectRatio="none" style="width:95px;height:339px;" version="1.1" viewBox="0 0 95 339" width="95px" zoomAndPan="magnify"><defs><filter height="300%" id="fn0qz365xlp2q" width="300%" x="-1" y="-1"><feGaussianBlur result="blurOut" stdDeviation="2.0"/><feColorMatrix in="blurOut" result="blurOut2" type="matrix" values="0 0 0 0 0 0 0 0 0 0 0 0 0 0 0 0 0 0 .4 0"/><feOffset dx="4.0" dy="4.0" in="blurOut2" result="blurOut3"/><feBlend in="SourceGraphic" in2="blurOut3" mode="normal"/></filter></defs><g><ellipse cx="44.25" cy="18" fill="#000000" filter="url(#fn0qz365xlp2q)" rx="10" ry="10" style="stroke: none; stroke-width: 1.0;"/><rect fill="#FEFECE" filter="url(#fn0qz365xlp2q)" height="50" rx="12.5" ry="12.5" style="stroke: #A80036; stroke-width: 1.5;" width="62" x="13.25" y="88"/><line style="stroke: #A80036; stroke-width: 1.5;" x1="13.25" x2="75.25" y1="114.2969" y2="114.2969"/><text fill="#000000" font-family="sans-serif" font-size="14" lengthAdjust="spacingAndGlyphs" textLength="42" x="23.25" y="105.9951">getter</text><rect fill="#FEFECE" filter="url(#fn0qz365xlp2q)" height="50" rx="12.5" ry="12.5" style="stroke: #A80036; stroke-width: 1.5;" width="77" x="6" y="198"/><line style="stroke: #A80036; stroke-width: 1.5;" x1="6" x2="83" y1="224.2969" y2="224.2969"/><text fill="#000000" font-family="sans-serif" font-size="14" lengthAdjust="spacingAndGlyphs" textLength="57" x="16" y="215.9951">validator</text><ellipse cx="44.25" cy="318" fill="none" filter="url(#fn0qz365xlp2q)" rx="10" ry="10" style="stroke: #000000; stroke-width: 1.0;"/><ellipse cx="44.75" cy="318.5" fill="#000000" rx="6" ry="6" style="stroke: none; stroke-width: 1.0;"/><!--link *start to getter--><path d="M44.25,28.257 C44.25,40.856 44.25,63.981 44.25,82.743 " fill="none" id="*start-getter" style="stroke: #A80036; stroke-width: 1.0;"/><polygon fill="#A80036" points="44.25,87.907,48.25,78.907,44.25,82.907,40.25,78.907,44.25,87.907" style="stroke: #A80036; stroke-width: 1.0;"/><!--link getter to validator--><path d="M44.25,138.237 C44.25,154.357 44.25,175.621 44.25,192.691 " fill="none" id="getter-validator" style="stroke: #A80036; stroke-width: 1.0;"/><polygon fill="#A80036" points="44.25,197.844,48.25,188.844,44.25,192.844,40.25,188.844,44.25,197.844" style="stroke: #A80036; stroke-width: 1.0;"/><!--link validator to *end--><path d="M44.25,248.4347 C44.25,265.5384 44.25,287.827 44.25,302.2736 " fill="none" id="validator-*end" style="stroke: #A80036; stroke-width: 1.0;"/><polygon fill="#A80036" points="44.25,307.5817,48.25,298.5817,44.25,302.5817,40.25,298.5817,44.25,307.5817" style="stroke: #A80036; stroke-width: 1.0;"/></g></svg>