<?xml version="1.0" encoding="UTF-8" standalone="no"?><svg xmlns="http://www.w3.org/2000/svg" xmlns:xlink="http://www.w3.org/1999/xlink" contentScriptType="application/ecmascript" contentStyleType="text/css" height="357px" preserveAspectRatio="none" style="width:794px;height:357px;" version="1.1" viewBox="0 0 794 357" width="794px" zoomAndPan="magnify"><defs><filter height="300%" id="fj3kv6bk7p9h4" width="300%" x="-1" y="-1"><feGaussianBlur result="blurOut" stdDeviation="2.0"/><feColorMatrix in="blurOut" result="blurOut2" type="matrix" values="0 0 0 0 0 0 0 0 0 0 0 0 0 0 0 0 0 0 .4 0"/><feOffset dx="4.0" dy="4.0" in="blurOut2" result="blurOut3"/><feBlend in="SourceGraphic" in2="blurOut3" mode="normal"/></filter></defs><g><!--class Field--><rect fill="#FEFECE" filter="url(#fj3kv6bk7p9h4)" height="60.8047" id="Field" style="stroke: #A80036; stroke-width: 1.5;" width="84" x="264" y="8.5"/><ellipse cx="289.35" cy="24.5" fill="#ADD1B2" rx="11" ry="11" style="stroke: #A80036; stroke-width: 1.0;"/><path d="M292.3188,30.1406 Q291.7406,30.4375 291.1,30.5781 Q290.4594,30.7344 289.7563,30.7344 Q287.2563,30.7344 285.9281,29.0938 Q284.6156,27.4375 284.6156,24.3125 Q284.6156,21.1875 285.9281,19.5313 Q287.2563,17.875 289.7563,17.875 Q290.4594,17.875 291.1,18.0313 Q291.7563,18.1875 292.3188,18.4844 L292.3188,21.2031 Q291.6938,20.625 291.1,20.3594 Q290.5063,20.0781 289.8813,20.0781 Q288.5375,20.0781 287.85,21.1563 Q287.1625,22.2188 287.1625,24.3125 Q287.1625,26.4063 287.85,27.4844 Q288.5375,28.5469 289.8813,28.5469 Q290.5063,28.5469 291.1,28.2813 Q291.6938,28 292.3188,27.4219 L292.3188,30.1406 Z "/><text fill="#000000" font-family="sans-serif" font-size="12" lengthAdjust="spacingAndGlyphs" textLength="29" x="305.65" y="28.6543">Field</text><line style="stroke: #A80036; stroke-width: 1.5;" x1="265" x2="347" y1="40.5" y2="40.5"/><text fill="#000000" font-family="sans-serif" font-size="11" lengthAdjust="spacingAndGlyphs" textLength="72" x="270" y="54.7104">identification</text><line style="stroke: #A80036; stroke-width: 1.5;" x1="265" x2="347" y1="61.3047" y2="61.3047"/><!--class Scalar field--><rect fill="#FEFECE" filter="url(#fj3kv6bk7p9h4)" height="60.8047" id="Scalar field" style="stroke: #A80036; stroke-width: 1.5;" width="101" x="188.75" y="149.5"/><ellipse cx="203.75" cy="165.5" fill="#ADD1B2" rx="11" ry="11" style="stroke: #A80036; stroke-width: 1.0;"/><path d="M206.7188,171.1406 Q206.1406,171.4375 205.5,171.5781 Q204.8594,171.7344 204.1563,171.7344 Q201.6563,171.7344 200.3281,170.0938 Q199.0156,168.4375 199.0156,165.3125 Q199.0156,162.1875 200.3281,160.5313 Q201.6563,158.875 204.1563,158.875 Q204.8594,158.875 205.5,159.0313 Q206.1563,159.1875 206.7188,159.4844 L206.7188,162.2031 Q206.0938,161.625 205.5,161.3594 Q204.9063,161.0781 204.2813,161.0781 Q202.9375,161.0781 202.25,162.1563 Q201.5625,163.2188 201.5625,165.3125 Q201.5625,167.4063 202.25,168.4844 Q202.9375,169.5469 204.2813,169.5469 Q204.9063,169.5469 205.5,169.2813 Q206.0938,169 206.7188,168.4219 L206.7188,171.1406 Z "/><text fill="#000000" font-family="sans-serif" font-size="12" lengthAdjust="spacingAndGlyphs" textLength="69" x="217.75" y="169.6543">Scalar field</text><line style="stroke: #A80036; stroke-width: 1.5;" x1="189.75" x2="288.75" y1="181.5" y2="181.5"/><text fill="#000000" font-family="sans-serif" font-size="11" lengthAdjust="spacingAndGlyphs" textLength="70" x="194.75" y="195.7104">Scalar value</text><line style="stroke: #A80036; stroke-width: 1.5;" x1="189.75" x2="288.75" y1="202.3047" y2="202.3047"/><!--class List field--><rect fill="#FEFECE" filter="url(#fj3kv6bk7p9h4)" height="60.8047" id="List field" style="stroke: #A80036; stroke-width: 1.5;" width="97" x="324.75" y="149.5"/><ellipse cx="346.05" cy="165.5" fill="#ADD1B2" rx="11" ry="11" style="stroke: #A80036; stroke-width: 1.0;"/><path d="M349.0188,171.1406 Q348.4406,171.4375 347.8,171.5781 Q347.1594,171.7344 346.4563,171.7344 Q343.9563,171.7344 342.6281,170.0938 Q341.3156,168.4375 341.3156,165.3125 Q341.3156,162.1875 342.6281,160.5313 Q343.9563,158.875 346.4563,158.875 Q347.1594,158.875 347.8,159.0313 Q348.4563,159.1875 349.0188,159.4844 L349.0188,162.2031 Q348.3938,161.625 347.8,161.3594 Q347.2063,161.0781 346.5813,161.0781 Q345.2375,161.0781 344.55,162.1563 Q343.8625,163.2188 343.8625,165.3125 Q343.8625,167.4063 344.55,168.4844 Q345.2375,169.5469 346.5813,169.5469 Q347.2063,169.5469 347.8,169.2813 Q348.3938,169 349.0188,168.4219 L349.0188,171.1406 Z "/><text fill="#000000" font-family="sans-serif" font-size="12" lengthAdjust="spacingAndGlyphs" textLength="51" x="361.45" y="169.6543">List field</text><line style="stroke: #A80036; stroke-width: 1.5;" x1="325.75" x2="420.75" y1="181.5" y2="181.5"/><text fill="#000000" font-family="sans-serif" font-size="11" lengthAdjust="spacingAndGlyphs" textLength="85" x="330.75" y="195.7104">Scalar[] values</text><line style="stroke: #A80036; stroke-width: 1.5;" x1="325.75" x2="420.75" y1="202.3047" y2="202.3047"/><!--class Structure field--><rect fill="#FEFECE" filter="url(#fj3kv6bk7p9h4)" height="60.8047" id="Structure field" style="stroke: #A80036; stroke-width: 1.5;" width="123" x="456.75" y="149.5"/><ellipse cx="472.65" cy="165.5" fill="#ADD1B2" rx="11" ry="11" style="stroke: #A80036; stroke-width: 1.0;"/><path d="M475.6188,171.1406 Q475.0406,171.4375 474.4,171.5781 Q473.7594,171.7344 473.0563,171.7344 Q470.5563,171.7344 469.2281,170.0938 Q467.9156,168.4375 467.9156,165.3125 Q467.9156,162.1875 469.2281,160.5313 Q470.5563,158.875 473.0563,158.875 Q473.7594,158.875 474.4,159.0313 Q475.0563,159.1875 475.6188,159.4844 L475.6188,162.2031 Q474.9938,161.625 474.4,161.3594 Q473.8063,161.0781 473.1813,161.0781 Q471.8375,161.0781 471.15,162.1563 Q470.4625,163.2188 470.4625,165.3125 Q470.4625,167.4063 471.15,168.4844 Q471.8375,169.5469 473.1813,169.5469 Q473.8063,169.5469 474.4,169.2813 Q474.9938,169 475.6188,168.4219 L475.6188,171.1406 Z "/><text fill="#000000" font-family="sans-serif" font-size="12" lengthAdjust="spacingAndGlyphs" textLength="89" x="486.85" y="169.6543">Structure field</text><line style="stroke: #A80036; stroke-width: 1.5;" x1="457.75" x2="578.75" y1="181.5" y2="181.5"/><text fill="#000000" font-family="sans-serif" font-size="11" lengthAdjust="spacingAndGlyphs" textLength="111" x="462.75" y="195.7104">Structure subFields</text><line style="stroke: #A80036; stroke-width: 1.5;" x1="457.75" x2="578.75" y1="202.3047" y2="202.3047"/><!--class List of structures field--><rect fill="#FEFECE" filter="url(#fj3kv6bk7p9h4)" height="60.8047" id="List of structures field" style="stroke: #A80036; stroke-width: 1.5;" width="168" x="615" y="149.5"/><ellipse cx="630" cy="165.5" fill="#ADD1B2" rx="11" ry="11" style="stroke: #A80036; stroke-width: 1.0;"/><path d="M632.9688,171.1406 Q632.3906,171.4375 631.75,171.5781 Q631.1094,171.7344 630.4063,171.7344 Q627.9063,171.7344 626.5781,170.0938 Q625.2656,168.4375 625.2656,165.3125 Q625.2656,162.1875 626.5781,160.5313 Q627.9063,158.875 630.4063,158.875 Q631.1094,158.875 631.75,159.0313 Q632.4063,159.1875 632.9688,159.4844 L632.9688,162.2031 Q632.3438,161.625 631.75,161.3594 Q631.1563,161.0781 630.5313,161.0781 Q629.1875,161.0781 628.5,162.1563 Q627.8125,163.2188 627.8125,165.3125 Q627.8125,167.4063 628.5,168.4844 Q629.1875,169.5469 630.5313,169.5469 Q631.1563,169.5469 631.75,169.2813 Q632.3438,169 632.9688,168.4219 L632.9688,171.1406 Z "/><text fill="#000000" font-family="sans-serif" font-size="12" lengthAdjust="spacingAndGlyphs" textLength="136" x="644" y="169.6543">List of structures field</text><line style="stroke: #A80036; stroke-width: 1.5;" x1="616" x2="782" y1="181.5" y2="181.5"/><text fill="#000000" font-family="sans-serif" font-size="11" lengthAdjust="spacingAndGlyphs" textLength="119" x="621" y="195.7104">Structure[] subFields</text><line style="stroke: #A80036; stroke-width: 1.5;" x1="616" x2="782" y1="202.3047" y2="202.3047"/><!--class Structure--><rect fill="#FEFECE" filter="url(#fj3kv6bk7p9h4)" height="99.2188" id="Structure" style="stroke: #A80036; stroke-width: 1.5;" width="91" x="62.75" y="130.5"/><ellipse cx="77.75" cy="146.5" fill="#ADD1B2" rx="11" ry="11" style="stroke: #A80036; stroke-width: 1.0;"/><path d="M80.7188,152.1406 Q80.1406,152.4375 79.5,152.5781 Q78.8594,152.7344 78.1563,152.7344 Q75.6563,152.7344 74.3281,151.0938 Q73.0156,149.4375 73.0156,146.3125 Q73.0156,143.1875 74.3281,141.5313 Q75.6563,139.875 78.1563,139.875 Q78.8594,139.875 79.5,140.0313 Q80.1563,140.1875 80.7188,140.4844 L80.7188,143.2031 Q80.0938,142.625 79.5,142.3594 Q78.9063,142.0781 78.2813,142.0781 Q76.9375,142.0781 76.25,143.1563 Q75.5625,144.2188 75.5625,146.3125 Q75.5625,148.4063 76.25,149.4844 Q76.9375,150.5469 78.2813,150.5469 Q78.9063,150.5469 79.5,150.2813 Q80.0938,150 80.7188,149.4219 L80.7188,152.1406 Z "/><text fill="#000000" font-family="sans-serif" font-size="12" lengthAdjust="spacingAndGlyphs" textLength="59" x="91.75" y="150.6543">Structure</text><line style="stroke: #A80036; stroke-width: 1.5;" x1="63.75" x2="152.75" y1="162.5" y2="162.5"/><text fill="#000000" font-family="sans-serif" font-size="11" lengthAdjust="spacingAndGlyphs" textLength="61" x="68.75" y="176.7104">Field field1</text><text fill="#000000" font-family="sans-serif" font-size="11" lengthAdjust="spacingAndGlyphs" textLength="61" x="68.75" y="189.5151">Field field2</text><text fill="#000000" font-family="sans-serif" font-size="11" lengthAdjust="spacingAndGlyphs" textLength="12" x="68.75" y="202.3198">...</text><text fill="#000000" font-family="sans-serif" font-size="11" lengthAdjust="spacingAndGlyphs" textLength="62" x="68.75" y="215.1245">Field fieldN</text><line style="stroke: #A80036; stroke-width: 1.5;" x1="63.75" x2="152.75" y1="221.7188" y2="221.7188"/><path d="M6,290.5 L6,345.8984 A0,0 0 0 0 6,345.8984 L210,345.8984 A0,0 0 0 0 210,345.8984 L210,300.5 L200,290.5 L112,290.5 L108,229.715 L104,290.5 L6,290.5 A0,0 0 0 0 6,290.5 " fill="#FBFB77" filter="url(#fj3kv6bk7p9h4)" style="stroke: #A80036; stroke-width: 1.0;"/><path d="M200,290.5 L200,300.5 L210,300.5 L200,290.5 " fill="#FBFB77" style="stroke: #A80036; stroke-width: 1.0;"/><text fill="#000000" font-family="sans-serif" font-size="13" lengthAdjust="spacingAndGlyphs" textLength="183" x="12" y="307.5669">Can contain other structures</text><text fill="#000000" font-family="sans-serif" font-size="13" lengthAdjust="spacingAndGlyphs" textLength="139" x="12" y="322.6997">resulting in multi level</text><text fill="#000000" font-family="sans-serif" font-size="13" lengthAdjust="spacingAndGlyphs" textLength="83" x="12" y="337.8325">tree of fields.</text><!--link Field to Scalar field--><path d="M282.92,87.883 C273.101,108.253 261.956,131.376 253.349,149.23 " fill="none" id="Field-Scalar field" style="stroke: #A80036; stroke-width: 1.0;"/><polygon fill="none" points="276.637,84.796,291.627,69.819,289.248,90.875,276.637,84.796" style="stroke: #A80036; stroke-width: 1.0;"/><!--link Field to List field--><path d="M329.08,87.883 C338.899,108.253 350.044,131.376 358.651,149.23 " fill="none" id="Field-List field" style="stroke: #A80036; stroke-width: 1.0;"/><polygon fill="none" points="322.752,90.875,320.373,69.819,335.363,84.796,322.752,90.875" style="stroke: #A80036; stroke-width: 1.0;"/><!--link Field to Structure field--><path d="M365.097,78.748 C399.127,101.06 441.236,128.669 472.642,149.26 " fill="none" id="Field-Structure field" style="stroke: #A80036; stroke-width: 1.0;"/><polygon fill="none" points="361.025,84.448,348.138,67.628,368.702,72.74,361.025,84.448" style="stroke: #A80036; stroke-width: 1.0;"/><!--link Field to List of structures field--><path d="M367.726,56.227 C427.26,72.546 519.496,99.591 597,130 C611.539,135.704 626.885,142.591 641.134,149.376 " fill="none" id="Field-List of structures field" style="stroke: #A80036; stroke-width: 1.0;"/><polygon fill="none" points="365.584,62.9,348.109,50.915,369.244,49.386,365.584,62.9" style="stroke: #A80036; stroke-width: 1.0;"/><!--link Field to Structure--><path d="M246.224,68.79 C217.522,86.07 183.476,108.755 154,130 C153.775,130.162 153.55,130.325 153.325,130.487 " fill="none" id="Field-Structure" style="stroke: #A80036; stroke-width: 1.0;"/><polygon fill="none" points="242.964,62.587,263.763,58.537,250.029,74.674,242.964,62.587" style="stroke: #A80036; stroke-width: 1.0;"/><!--link Field to Structure--><path d="M275.619,69.593 C251.473,86.769 218.021,109.083 189,130 C180.938,135.811 172.449,142.211 164.009,148.415 " fill="none" id="Field-Structure-1" style="stroke: #A80036; stroke-width: 1.0;"/><polygon fill="#FFFFFF" points="153.38,156.109,160.5857,155.8307,163.1003,149.0723,155.8946,149.3505,153.38,156.109" style="stroke: #A80036; stroke-width: 1.0;"/><text fill="#000000" font-family="sans-serif" font-size="13" lengthAdjust="spacingAndGlyphs" textLength="23" x="242.7748" y="89.5504">1..*</text></g></svg>